M48
; DRILL file {KiCad 5.99.0-unknown-2b86b34124~125~ubuntu18.04.1} date Thu Apr  8 16:17:31 2021
; FORMAT={-:-/ absolute / inch / decimal}
; #@! TF.CreationDate,2021-04-08T16:17:31+02:00
; #@! TF.GenerationSoftware,Kicad,Pcbnew,5.99.0-unknown-2b86b34124~125~ubuntu18.04.1
; #@! TF.FileFunction,Plated,1,2,PTH
FMAT,2
INCH
; #@! TA.AperFunction,Plated,PTH,ViaDrill
T1C0.0157
; #@! TA.AperFunction,Plated,PTH,ViaDrill
T2C0.0236
; #@! TA.AperFunction,Plated,PTH,ComponentDrill
T3C0.0315
; #@! TA.AperFunction,Plated,PTH,ComponentDrill
T4C0.0394
; #@! TA.AperFunction,Plated,PTH,ComponentDrill
T5C0.0669
%
G90
G05
T1
X4.2323Y-3.435
X4.3012Y-3.1102
X4.3996Y-3.6417
X4.3996Y-3.6811
X4.3996Y-3.7205
X4.5866Y-2.9331
X4.813Y-3.0906
X4.813Y-3.1988
X4.813Y-3.2874
X4.813Y-3.4547
X4.8917Y-3.4547
X5.2264Y-4.3504
X5.3307Y-2.9923
X5.3307Y-4.3504
X5.5335Y-3.315
X5.6791Y-3.1299
X5.6791Y-3.2874
T2
X4.3091Y-3.6791
T3
X5.5315Y-3.5433
X5.6315Y-3.5433
T4
X4.4587Y-3.1299
X4.4587Y-3.2776
X4.4587Y-3.4252
X4.6063Y-3.1299
X4.6063Y-3.2776
X4.6063Y-3.4252
X4.9311Y-4.5866
X5.0295Y-3.7894
X5.0311Y-4.5866
X5.1295Y-3.7894
X5.1311Y-4.5866
X5.2295Y-3.7894
X5.2311Y-4.5866
X5.3295Y-3.7894
X5.3311Y-4.5866
X5.4295Y-3.7894
X5.4311Y-4.5866
X5.5295Y-3.7894
X5.5311Y-4.5866
X5.5413Y-2.9813
X5.6311Y-4.5866
X5.6413Y-2.9813
X5.7311Y-4.5866
X5.8071Y-3.1299
X5.8071Y-3.2972
X5.8071Y-3.4449
T5
X4.3386Y-4.3219
X4.3386Y-4.5188
T0
M30
