%TF.GenerationSoftware,KiCad,Pcbnew,5.99.0-unknown-2b86b34124~125~ubuntu18.04.1*%
%TF.CreationDate,2021-04-08T16:17:32+02:00*%
%TF.ProjectId,controlAVR155,636f6e74-726f-46c4-9156-523135352e6b,rev?*%
%TF.SameCoordinates,Original*%
%TF.FileFunction,Legend,Top*%
%TF.FilePolarity,Positive*%
%FSLAX46Y46*%
G04 Gerber Fmt 4.6, Leading zero omitted, Abs format (unit mm)*
G04 Created by KiCad (PCBNEW 5.99.0-unknown-2b86b34124~125~ubuntu18.04.1) date 2021-04-08 16:17:32*
%MOMM*%
%LPD*%
G01*
G04 APERTURE LIST*
%ADD10C,0.150000*%
%ADD11C,0.120000*%
%ADD12C,0.100000*%
G04 APERTURE END LIST*
D10*
X146750000Y-76952380D02*
X146940476Y-76952380D01*
X147035714Y-77000000D01*
X147130952Y-77095238D01*
X147178571Y-77285714D01*
X147178571Y-77619047D01*
X147130952Y-77809523D01*
X147035714Y-77904761D01*
X146940476Y-77952380D01*
X146750000Y-77952380D01*
X146654761Y-77904761D01*
X146559523Y-77809523D01*
X146511904Y-77619047D01*
X146511904Y-77285714D01*
X146559523Y-77095238D01*
X146654761Y-77000000D01*
X146750000Y-76952380D01*
X147607142Y-76952380D02*
X147607142Y-77761904D01*
X147654761Y-77857142D01*
X147702380Y-77904761D01*
X147797619Y-77952380D01*
X147988095Y-77952380D01*
X148083333Y-77904761D01*
X148130952Y-77857142D01*
X148178571Y-77761904D01*
X148178571Y-76952380D01*
X148511904Y-76952380D02*
X149083333Y-76952380D01*
X148797619Y-77952380D02*
X148797619Y-76952380D01*
X123464285Y-118571428D02*
X124226190Y-118571428D01*
X123845238Y-118952380D02*
X123845238Y-118190476D01*
X125178571Y-117952380D02*
X124702380Y-117952380D01*
X124654761Y-118428571D01*
X124702380Y-118380952D01*
X124797619Y-118333333D01*
X125035714Y-118333333D01*
X125130952Y-118380952D01*
X125178571Y-118428571D01*
X125226190Y-118523809D01*
X125226190Y-118761904D01*
X125178571Y-118857142D01*
X125130952Y-118904761D01*
X125035714Y-118952380D01*
X124797619Y-118952380D01*
X124702380Y-118904761D01*
X124654761Y-118857142D01*
X125511904Y-117952380D02*
X125845238Y-118952380D01*
X126178571Y-117952380D01*
X146845238Y-82202380D02*
X146845238Y-81202380D01*
X147321428Y-82202380D02*
X147321428Y-81202380D01*
X147892857Y-82202380D01*
X147892857Y-81202380D01*
X148226190Y-81202380D02*
X148797619Y-81202380D01*
X148511904Y-82202380D02*
X148511904Y-81202380D01*
X143083333Y-74202380D02*
X142750000Y-73726190D01*
X142511904Y-74202380D02*
X142511904Y-73202380D01*
X142892857Y-73202380D01*
X142988095Y-73250000D01*
X143035714Y-73297619D01*
X143083333Y-73392857D01*
X143083333Y-73535714D01*
X143035714Y-73630952D01*
X142988095Y-73678571D01*
X142892857Y-73726190D01*
X142511904Y-73726190D01*
X143416666Y-73202380D02*
X144083333Y-74202380D01*
X144083333Y-73202380D02*
X143416666Y-74202380D01*
X131250000Y-94702380D02*
X131250000Y-93702380D01*
X131583333Y-94416666D01*
X131916666Y-93702380D01*
X131916666Y-94702380D01*
X132821428Y-94035714D02*
X132821428Y-94702380D01*
X132392857Y-94035714D02*
X132392857Y-94559523D01*
X132440476Y-94654761D01*
X132535714Y-94702380D01*
X132678571Y-94702380D01*
X132773809Y-94654761D01*
X132821428Y-94607142D01*
X133154761Y-94035714D02*
X133535714Y-94035714D01*
X133297619Y-93702380D02*
X133297619Y-94559523D01*
X133345238Y-94654761D01*
X133440476Y-94702380D01*
X133535714Y-94702380D01*
X134250000Y-94654761D02*
X134154761Y-94702380D01*
X133964285Y-94702380D01*
X133869047Y-94654761D01*
X133821428Y-94559523D01*
X133821428Y-94178571D01*
X133869047Y-94083333D01*
X133964285Y-94035714D01*
X134154761Y-94035714D01*
X134250000Y-94083333D01*
X134297619Y-94178571D01*
X134297619Y-94273809D01*
X133821428Y-94369047D01*
X105178571Y-109607142D02*
X106321428Y-109607142D01*
X105750000Y-110178571D02*
X105750000Y-109035714D01*
X129738095Y-118000000D02*
X129642857Y-117952380D01*
X129500000Y-117952380D01*
X129357142Y-118000000D01*
X129261904Y-118095238D01*
X129214285Y-118190476D01*
X129166666Y-118380952D01*
X129166666Y-118523809D01*
X129214285Y-118714285D01*
X129261904Y-118809523D01*
X129357142Y-118904761D01*
X129500000Y-118952380D01*
X129595238Y-118952380D01*
X129738095Y-118904761D01*
X129785714Y-118857142D01*
X129785714Y-118523809D01*
X129595238Y-118523809D01*
X130214285Y-118952380D02*
X130214285Y-117952380D01*
X130785714Y-118952380D01*
X130785714Y-117952380D01*
X131261904Y-118952380D02*
X131261904Y-117952380D01*
X131500000Y-117952380D01*
X131642857Y-118000000D01*
X131738095Y-118095238D01*
X131785714Y-118190476D01*
X131833333Y-118380952D01*
X131833333Y-118523809D01*
X131785714Y-118714285D01*
X131738095Y-118809523D01*
X131642857Y-118904761D01*
X131500000Y-118952380D01*
X131261904Y-118952380D01*
X134476190Y-118952380D02*
X134476190Y-117952380D01*
X134714285Y-117952380D01*
X134857142Y-118000000D01*
X134952380Y-118095238D01*
X135000000Y-118190476D01*
X135047619Y-118380952D01*
X135047619Y-118523809D01*
X135000000Y-118714285D01*
X134952380Y-118809523D01*
X134857142Y-118904761D01*
X134714285Y-118952380D01*
X134476190Y-118952380D01*
X135476190Y-118952380D02*
X135476190Y-117952380D01*
X135952380Y-118952380D02*
X135952380Y-117952380D01*
X136523809Y-118952380D01*
X136523809Y-117952380D01*
X126559523Y-117952380D02*
X127178571Y-117952380D01*
X126845238Y-118333333D01*
X126988095Y-118333333D01*
X127083333Y-118380952D01*
X127130952Y-118428571D01*
X127178571Y-118523809D01*
X127178571Y-118761904D01*
X127130952Y-118857142D01*
X127083333Y-118904761D01*
X126988095Y-118952380D01*
X126702380Y-118952380D01*
X126607142Y-118904761D01*
X126559523Y-118857142D01*
X127511904Y-118285714D02*
X127750000Y-118952380D01*
X127988095Y-118285714D01*
X128273809Y-117952380D02*
X128892857Y-117952380D01*
X128559523Y-118333333D01*
X128702380Y-118333333D01*
X128797619Y-118380952D01*
X128845238Y-118428571D01*
X128892857Y-118523809D01*
X128892857Y-118761904D01*
X128845238Y-118857142D01*
X128797619Y-118904761D01*
X128702380Y-118952380D01*
X128416666Y-118952380D01*
X128321428Y-118904761D01*
X128273809Y-118857142D01*
X125178571Y-104123571D02*
X125321428Y-104171190D01*
X125369047Y-104218809D01*
X125416666Y-104314047D01*
X125416666Y-104456904D01*
X125369047Y-104552142D01*
X125321428Y-104599761D01*
X125226190Y-104647380D01*
X124845238Y-104647380D01*
X124845238Y-103647380D01*
X125178571Y-103647380D01*
X125273809Y-103695000D01*
X125321428Y-103742619D01*
X125369047Y-103837857D01*
X125369047Y-103933095D01*
X125321428Y-104028333D01*
X125273809Y-104075952D01*
X125178571Y-104123571D01*
X124845238Y-104123571D01*
X125988095Y-104647380D02*
X125892857Y-104599761D01*
X125845238Y-104504523D01*
X125845238Y-103647380D01*
X126797619Y-103980714D02*
X126797619Y-104647380D01*
X126369047Y-103980714D02*
X126369047Y-104504523D01*
X126416666Y-104599761D01*
X126511904Y-104647380D01*
X126654761Y-104647380D01*
X126750000Y-104599761D01*
X126797619Y-104552142D01*
X127654761Y-104599761D02*
X127559523Y-104647380D01*
X127369047Y-104647380D01*
X127273809Y-104599761D01*
X127226190Y-104504523D01*
X127226190Y-104123571D01*
X127273809Y-104028333D01*
X127369047Y-103980714D01*
X127559523Y-103980714D01*
X127654761Y-104028333D01*
X127702380Y-104123571D01*
X127702380Y-104218809D01*
X127226190Y-104314047D01*
X127988095Y-103980714D02*
X128369047Y-103980714D01*
X128130952Y-103647380D02*
X128130952Y-104504523D01*
X128178571Y-104599761D01*
X128273809Y-104647380D01*
X128369047Y-104647380D01*
X128845238Y-104647380D02*
X128750000Y-104599761D01*
X128702380Y-104552142D01*
X128654761Y-104456904D01*
X128654761Y-104171190D01*
X128702380Y-104075952D01*
X128750000Y-104028333D01*
X128845238Y-103980714D01*
X128988095Y-103980714D01*
X129083333Y-104028333D01*
X129130952Y-104075952D01*
X129178571Y-104171190D01*
X129178571Y-104456904D01*
X129130952Y-104552142D01*
X129083333Y-104599761D01*
X128988095Y-104647380D01*
X128845238Y-104647380D01*
X129750000Y-104647380D02*
X129654761Y-104599761D01*
X129607142Y-104552142D01*
X129559523Y-104456904D01*
X129559523Y-104171190D01*
X129607142Y-104075952D01*
X129654761Y-104028333D01*
X129750000Y-103980714D01*
X129892857Y-103980714D01*
X129988095Y-104028333D01*
X130035714Y-104075952D01*
X130083333Y-104171190D01*
X130083333Y-104456904D01*
X130035714Y-104552142D01*
X129988095Y-104599761D01*
X129892857Y-104647380D01*
X129750000Y-104647380D01*
X130369047Y-103980714D02*
X130750000Y-103980714D01*
X130511904Y-103647380D02*
X130511904Y-104504523D01*
X130559523Y-104599761D01*
X130654761Y-104647380D01*
X130750000Y-104647380D01*
X131083333Y-104647380D02*
X131083333Y-103647380D01*
X131511904Y-104647380D02*
X131511904Y-104123571D01*
X131464285Y-104028333D01*
X131369047Y-103980714D01*
X131226190Y-103980714D01*
X131130952Y-104028333D01*
X131083333Y-104075952D01*
X132750000Y-104647380D02*
X132750000Y-103647380D01*
X133083333Y-104361666D01*
X133416666Y-103647380D01*
X133416666Y-104647380D01*
X134321428Y-103980714D02*
X134321428Y-104647380D01*
X133892857Y-103980714D02*
X133892857Y-104504523D01*
X133940476Y-104599761D01*
X134035714Y-104647380D01*
X134178571Y-104647380D01*
X134273809Y-104599761D01*
X134321428Y-104552142D01*
X134750000Y-104599761D02*
X134845238Y-104647380D01*
X135035714Y-104647380D01*
X135130952Y-104599761D01*
X135178571Y-104504523D01*
X135178571Y-104456904D01*
X135130952Y-104361666D01*
X135035714Y-104314047D01*
X134892857Y-104314047D01*
X134797619Y-104266428D01*
X134750000Y-104171190D01*
X134750000Y-104123571D01*
X134797619Y-104028333D01*
X134892857Y-103980714D01*
X135035714Y-103980714D01*
X135130952Y-104028333D01*
X135607142Y-104647380D02*
X135607142Y-103980714D01*
X135607142Y-103647380D02*
X135559523Y-103695000D01*
X135607142Y-103742619D01*
X135654761Y-103695000D01*
X135607142Y-103647380D01*
X135607142Y-103742619D01*
X136511904Y-104599761D02*
X136416666Y-104647380D01*
X136226190Y-104647380D01*
X136130952Y-104599761D01*
X136083333Y-104552142D01*
X136035714Y-104456904D01*
X136035714Y-104171190D01*
X136083333Y-104075952D01*
X136130952Y-104028333D01*
X136226190Y-103980714D01*
X136416666Y-103980714D01*
X136511904Y-104028333D01*
X138273809Y-104647380D02*
X137940476Y-104171190D01*
X137702380Y-104647380D02*
X137702380Y-103647380D01*
X138083333Y-103647380D01*
X138178571Y-103695000D01*
X138226190Y-103742619D01*
X138273809Y-103837857D01*
X138273809Y-103980714D01*
X138226190Y-104075952D01*
X138178571Y-104123571D01*
X138083333Y-104171190D01*
X137702380Y-104171190D01*
X139083333Y-104599761D02*
X138988095Y-104647380D01*
X138797619Y-104647380D01*
X138702380Y-104599761D01*
X138654761Y-104504523D01*
X138654761Y-104123571D01*
X138702380Y-104028333D01*
X138797619Y-103980714D01*
X138988095Y-103980714D01*
X139083333Y-104028333D01*
X139130952Y-104123571D01*
X139130952Y-104218809D01*
X138654761Y-104314047D01*
X139988095Y-104599761D02*
X139892857Y-104647380D01*
X139702380Y-104647380D01*
X139607142Y-104599761D01*
X139559523Y-104552142D01*
X139511904Y-104456904D01*
X139511904Y-104171190D01*
X139559523Y-104075952D01*
X139607142Y-104028333D01*
X139702380Y-103980714D01*
X139892857Y-103980714D01*
X139988095Y-104028333D01*
X140797619Y-104599761D02*
X140702380Y-104647380D01*
X140511904Y-104647380D01*
X140416666Y-104599761D01*
X140369047Y-104504523D01*
X140369047Y-104123571D01*
X140416666Y-104028333D01*
X140511904Y-103980714D01*
X140702380Y-103980714D01*
X140797619Y-104028333D01*
X140845238Y-104123571D01*
X140845238Y-104218809D01*
X140369047Y-104314047D01*
X141273809Y-104647380D02*
X141273809Y-103980714D01*
X141273809Y-103647380D02*
X141226190Y-103695000D01*
X141273809Y-103742619D01*
X141321428Y-103695000D01*
X141273809Y-103647380D01*
X141273809Y-103742619D01*
X141654761Y-103980714D02*
X141892857Y-104647380D01*
X142130952Y-103980714D01*
X142892857Y-104599761D02*
X142797619Y-104647380D01*
X142607142Y-104647380D01*
X142511904Y-104599761D01*
X142464285Y-104504523D01*
X142464285Y-104123571D01*
X142511904Y-104028333D01*
X142607142Y-103980714D01*
X142797619Y-103980714D01*
X142892857Y-104028333D01*
X142940476Y-104123571D01*
X142940476Y-104218809D01*
X142464285Y-104314047D01*
X125440476Y-105876428D02*
X126202380Y-105876428D01*
X125821428Y-106257380D02*
X125821428Y-105495476D01*
X127869047Y-106209761D02*
X127773809Y-106257380D01*
X127583333Y-106257380D01*
X127488095Y-106209761D01*
X127440476Y-106162142D01*
X127392857Y-106066904D01*
X127392857Y-105781190D01*
X127440476Y-105685952D01*
X127488095Y-105638333D01*
X127583333Y-105590714D01*
X127773809Y-105590714D01*
X127869047Y-105638333D01*
X128440476Y-106257380D02*
X128345238Y-106209761D01*
X128297619Y-106162142D01*
X128250000Y-106066904D01*
X128250000Y-105781190D01*
X128297619Y-105685952D01*
X128345238Y-105638333D01*
X128440476Y-105590714D01*
X128583333Y-105590714D01*
X128678571Y-105638333D01*
X128726190Y-105685952D01*
X128773809Y-105781190D01*
X128773809Y-106066904D01*
X128726190Y-106162142D01*
X128678571Y-106209761D01*
X128583333Y-106257380D01*
X128440476Y-106257380D01*
X129202380Y-105590714D02*
X129202380Y-106257380D01*
X129202380Y-105685952D02*
X129250000Y-105638333D01*
X129345238Y-105590714D01*
X129488095Y-105590714D01*
X129583333Y-105638333D01*
X129630952Y-105733571D01*
X129630952Y-106257380D01*
X129964285Y-105590714D02*
X130345238Y-105590714D01*
X130107142Y-105257380D02*
X130107142Y-106114523D01*
X130154761Y-106209761D01*
X130250000Y-106257380D01*
X130345238Y-106257380D01*
X130678571Y-106257380D02*
X130678571Y-105590714D01*
X130678571Y-105781190D02*
X130726190Y-105685952D01*
X130773809Y-105638333D01*
X130869047Y-105590714D01*
X130964285Y-105590714D01*
X131440476Y-106257380D02*
X131345238Y-106209761D01*
X131297619Y-106162142D01*
X131250000Y-106066904D01*
X131250000Y-105781190D01*
X131297619Y-105685952D01*
X131345238Y-105638333D01*
X131440476Y-105590714D01*
X131583333Y-105590714D01*
X131678571Y-105638333D01*
X131726190Y-105685952D01*
X131773809Y-105781190D01*
X131773809Y-106066904D01*
X131726190Y-106162142D01*
X131678571Y-106209761D01*
X131583333Y-106257380D01*
X131440476Y-106257380D01*
X132345238Y-106257380D02*
X132250000Y-106209761D01*
X132202380Y-106114523D01*
X132202380Y-105257380D01*
X133488095Y-106257380D02*
X133488095Y-105257380D01*
X133821428Y-105971666D01*
X134154761Y-105257380D01*
X134154761Y-106257380D01*
X135297619Y-106352619D02*
X135202380Y-106305000D01*
X135107142Y-106209761D01*
X134964285Y-106066904D01*
X134869047Y-106019285D01*
X134773809Y-106019285D01*
X134821428Y-106257380D02*
X134726190Y-106209761D01*
X134630952Y-106114523D01*
X134583333Y-105924047D01*
X134583333Y-105590714D01*
X134630952Y-105400238D01*
X134726190Y-105305000D01*
X134821428Y-105257380D01*
X135011904Y-105257380D01*
X135107142Y-105305000D01*
X135202380Y-105400238D01*
X135250000Y-105590714D01*
X135250000Y-105924047D01*
X135202380Y-106114523D01*
X135107142Y-106209761D01*
X135011904Y-106257380D01*
X134821428Y-106257380D01*
X135535714Y-105257380D02*
X136107142Y-105257380D01*
X135821428Y-106257380D02*
X135821428Y-105257380D01*
X136297619Y-105257380D02*
X136869047Y-105257380D01*
X136583333Y-106257380D02*
X136583333Y-105257380D01*
X137916666Y-105971666D02*
X138392857Y-105971666D01*
X137821428Y-106257380D02*
X138154761Y-105257380D01*
X138488095Y-106257380D01*
X138678571Y-105257380D02*
X139011904Y-106257380D01*
X139345238Y-105257380D01*
X140250000Y-106257380D02*
X139916666Y-105781190D01*
X139678571Y-106257380D02*
X139678571Y-105257380D01*
X140059523Y-105257380D01*
X140154761Y-105305000D01*
X140202380Y-105352619D01*
X140250000Y-105447857D01*
X140250000Y-105590714D01*
X140202380Y-105685952D01*
X140154761Y-105733571D01*
X140059523Y-105781190D01*
X139678571Y-105781190D01*
X141202380Y-106257380D02*
X140630952Y-106257380D01*
X140916666Y-106257380D02*
X140916666Y-105257380D01*
X140821428Y-105400238D01*
X140726190Y-105495476D01*
X140630952Y-105543095D01*
X142107142Y-105257380D02*
X141630952Y-105257380D01*
X141583333Y-105733571D01*
X141630952Y-105685952D01*
X141726190Y-105638333D01*
X141964285Y-105638333D01*
X142059523Y-105685952D01*
X142107142Y-105733571D01*
X142154761Y-105828809D01*
X142154761Y-106066904D01*
X142107142Y-106162142D01*
X142059523Y-106209761D01*
X141964285Y-106257380D01*
X141726190Y-106257380D01*
X141630952Y-106209761D01*
X141583333Y-106162142D01*
X143059523Y-105257380D02*
X142583333Y-105257380D01*
X142535714Y-105733571D01*
X142583333Y-105685952D01*
X142678571Y-105638333D01*
X142916666Y-105638333D01*
X143011904Y-105685952D01*
X143059523Y-105733571D01*
X143107142Y-105828809D01*
X143107142Y-106066904D01*
X143059523Y-106162142D01*
X143011904Y-106209761D01*
X142916666Y-106257380D01*
X142678571Y-106257380D01*
X142583333Y-106209761D01*
X142535714Y-106162142D01*
X106250000Y-113988095D02*
X106297619Y-113892857D01*
X106297619Y-113750000D01*
X106250000Y-113607142D01*
X106154761Y-113511904D01*
X106059523Y-113464285D01*
X105869047Y-113416666D01*
X105726190Y-113416666D01*
X105535714Y-113464285D01*
X105440476Y-113511904D01*
X105345238Y-113607142D01*
X105297619Y-113750000D01*
X105297619Y-113845238D01*
X105345238Y-113988095D01*
X105392857Y-114035714D01*
X105726190Y-114035714D01*
X105726190Y-113845238D01*
X105297619Y-114464285D02*
X106297619Y-114464285D01*
X105297619Y-115035714D01*
X106297619Y-115035714D01*
X105297619Y-115511904D02*
X106297619Y-115511904D01*
X106297619Y-115750000D01*
X106250000Y-115892857D01*
X106154761Y-115988095D01*
X106059523Y-116035714D01*
X105869047Y-116083333D01*
X105726190Y-116083333D01*
X105535714Y-116035714D01*
X105440476Y-115988095D01*
X105345238Y-115892857D01*
X105297619Y-115750000D01*
X105297619Y-115511904D01*
X146988095Y-89000000D02*
X146892857Y-88952380D01*
X146750000Y-88952380D01*
X146607142Y-89000000D01*
X146511904Y-89095238D01*
X146464285Y-89190476D01*
X146416666Y-89380952D01*
X146416666Y-89523809D01*
X146464285Y-89714285D01*
X146511904Y-89809523D01*
X146607142Y-89904761D01*
X146750000Y-89952380D01*
X146845238Y-89952380D01*
X146988095Y-89904761D01*
X147035714Y-89857142D01*
X147035714Y-89523809D01*
X146845238Y-89523809D01*
X147464285Y-89952380D02*
X147464285Y-88952380D01*
X148035714Y-89952380D01*
X148035714Y-88952380D01*
X148511904Y-89952380D02*
X148511904Y-88952380D01*
X148750000Y-88952380D01*
X148892857Y-89000000D01*
X148988095Y-89095238D01*
X149035714Y-89190476D01*
X149083333Y-89380952D01*
X149083333Y-89523809D01*
X149035714Y-89714285D01*
X148988095Y-89809523D01*
X148892857Y-89904761D01*
X148750000Y-89952380D01*
X148511904Y-89952380D01*
X139738095Y-73202380D02*
X140309523Y-73202380D01*
X140023809Y-74202380D02*
X140023809Y-73202380D01*
X140547619Y-73202380D02*
X141214285Y-74202380D01*
X141214285Y-73202380D02*
X140547619Y-74202380D01*
%TO.C,C3*%
X106833333Y-81307142D02*
X106785714Y-81354761D01*
X106642857Y-81402380D01*
X106547619Y-81402380D01*
X106404761Y-81354761D01*
X106309523Y-81259523D01*
X106261904Y-81164285D01*
X106214285Y-80973809D01*
X106214285Y-80830952D01*
X106261904Y-80640476D01*
X106309523Y-80545238D01*
X106404761Y-80450000D01*
X106547619Y-80402380D01*
X106642857Y-80402380D01*
X106785714Y-80450000D01*
X106833333Y-80497619D01*
X107166666Y-80402380D02*
X107785714Y-80402380D01*
X107452380Y-80783333D01*
X107595238Y-80783333D01*
X107690476Y-80830952D01*
X107738095Y-80878571D01*
X107785714Y-80973809D01*
X107785714Y-81211904D01*
X107738095Y-81307142D01*
X107690476Y-81354761D01*
X107595238Y-81402380D01*
X107309523Y-81402380D01*
X107214285Y-81354761D01*
X107166666Y-81307142D01*
%TO.C,*%
%TO.C,J9*%
X124766666Y-95702380D02*
X124766666Y-96416666D01*
X124719047Y-96559523D01*
X124623809Y-96654761D01*
X124480952Y-96702380D01*
X124385714Y-96702380D01*
X125290476Y-96702380D02*
X125480952Y-96702380D01*
X125576190Y-96654761D01*
X125623809Y-96607142D01*
X125719047Y-96464285D01*
X125766666Y-96273809D01*
X125766666Y-95892857D01*
X125719047Y-95797619D01*
X125671428Y-95750000D01*
X125576190Y-95702380D01*
X125385714Y-95702380D01*
X125290476Y-95750000D01*
X125242857Y-95797619D01*
X125195238Y-95892857D01*
X125195238Y-96130952D01*
X125242857Y-96226190D01*
X125290476Y-96273809D01*
X125385714Y-96321428D01*
X125576190Y-96321428D01*
X125671428Y-96273809D01*
X125719047Y-96226190D01*
X125766666Y-96130952D01*
%TO.C,J8*%
X122246666Y-115952380D02*
X122246666Y-116666666D01*
X122199047Y-116809523D01*
X122103809Y-116904761D01*
X121960952Y-116952380D01*
X121865714Y-116952380D01*
X122865714Y-116380952D02*
X122770476Y-116333333D01*
X122722857Y-116285714D01*
X122675238Y-116190476D01*
X122675238Y-116142857D01*
X122722857Y-116047619D01*
X122770476Y-116000000D01*
X122865714Y-115952380D01*
X123056190Y-115952380D01*
X123151428Y-116000000D01*
X123199047Y-116047619D01*
X123246666Y-116142857D01*
X123246666Y-116190476D01*
X123199047Y-116285714D01*
X123151428Y-116333333D01*
X123056190Y-116380952D01*
X122865714Y-116380952D01*
X122770476Y-116428571D01*
X122722857Y-116476190D01*
X122675238Y-116571428D01*
X122675238Y-116761904D01*
X122722857Y-116857142D01*
X122770476Y-116904761D01*
X122865714Y-116952380D01*
X123056190Y-116952380D01*
X123151428Y-116904761D01*
X123199047Y-116857142D01*
X123246666Y-116761904D01*
X123246666Y-116571428D01*
X123199047Y-116476190D01*
X123151428Y-116428571D01*
X123056190Y-116380952D01*
%TO.C,C4*%
X106383333Y-86107142D02*
X106335714Y-86154761D01*
X106192857Y-86202380D01*
X106097619Y-86202380D01*
X105954761Y-86154761D01*
X105859523Y-86059523D01*
X105811904Y-85964285D01*
X105764285Y-85773809D01*
X105764285Y-85630952D01*
X105811904Y-85440476D01*
X105859523Y-85345238D01*
X105954761Y-85250000D01*
X106097619Y-85202380D01*
X106192857Y-85202380D01*
X106335714Y-85250000D01*
X106383333Y-85297619D01*
X107240476Y-85535714D02*
X107240476Y-86202380D01*
X107002380Y-85154761D02*
X106764285Y-85869047D01*
X107383333Y-85869047D01*
%TO.C,U2*%
X119738095Y-92202380D02*
X119738095Y-93011904D01*
X119785714Y-93107142D01*
X119833333Y-93154761D01*
X119928571Y-93202380D01*
X120119047Y-93202380D01*
X120214285Y-93154761D01*
X120261904Y-93107142D01*
X120309523Y-93011904D01*
X120309523Y-92202380D01*
X120738095Y-92297619D02*
X120785714Y-92250000D01*
X120880952Y-92202380D01*
X121119047Y-92202380D01*
X121214285Y-92250000D01*
X121261904Y-92297619D01*
X121309523Y-92392857D01*
X121309523Y-92488095D01*
X121261904Y-92630952D01*
X120690476Y-93202380D01*
X121309523Y-93202380D01*
%TO.C,D1*%
X139011904Y-92202380D02*
X139011904Y-91202380D01*
X139250000Y-91202380D01*
X139392857Y-91250000D01*
X139488095Y-91345238D01*
X139535714Y-91440476D01*
X139583333Y-91630952D01*
X139583333Y-91773809D01*
X139535714Y-91964285D01*
X139488095Y-92059523D01*
X139392857Y-92154761D01*
X139250000Y-92202380D01*
X139011904Y-92202380D01*
X140535714Y-92202380D02*
X139964285Y-92202380D01*
X140250000Y-92202380D02*
X140250000Y-91202380D01*
X140154761Y-91345238D01*
X140059523Y-91440476D01*
X139964285Y-91488095D01*
%TO.C,C8*%
X144033333Y-85857142D02*
X143985714Y-85904761D01*
X143842857Y-85952380D01*
X143747619Y-85952380D01*
X143604761Y-85904761D01*
X143509523Y-85809523D01*
X143461904Y-85714285D01*
X143414285Y-85523809D01*
X143414285Y-85380952D01*
X143461904Y-85190476D01*
X143509523Y-85095238D01*
X143604761Y-85000000D01*
X143747619Y-84952380D01*
X143842857Y-84952380D01*
X143985714Y-85000000D01*
X144033333Y-85047619D01*
X144604761Y-85380952D02*
X144509523Y-85333333D01*
X144461904Y-85285714D01*
X144414285Y-85190476D01*
X144414285Y-85142857D01*
X144461904Y-85047619D01*
X144509523Y-85000000D01*
X144604761Y-84952380D01*
X144795238Y-84952380D01*
X144890476Y-85000000D01*
X144938095Y-85047619D01*
X144985714Y-85142857D01*
X144985714Y-85190476D01*
X144938095Y-85285714D01*
X144890476Y-85333333D01*
X144795238Y-85380952D01*
X144604761Y-85380952D01*
X144509523Y-85428571D01*
X144461904Y-85476190D01*
X144414285Y-85571428D01*
X144414285Y-85761904D01*
X144461904Y-85857142D01*
X144509523Y-85904761D01*
X144604761Y-85952380D01*
X144795238Y-85952380D01*
X144890476Y-85904761D01*
X144938095Y-85857142D01*
X144985714Y-85761904D01*
X144985714Y-85571428D01*
X144938095Y-85476190D01*
X144890476Y-85428571D01*
X144795238Y-85380952D01*
%TO.C,JP0*%
X144630952Y-90678571D02*
X144773809Y-90726190D01*
X144821428Y-90773809D01*
X144869047Y-90869047D01*
X144869047Y-91011904D01*
X144821428Y-91107142D01*
X144773809Y-91154761D01*
X144678571Y-91202380D01*
X144297619Y-91202380D01*
X144297619Y-90202380D01*
X144630952Y-90202380D01*
X144726190Y-90250000D01*
X144773809Y-90297619D01*
X144821428Y-90392857D01*
X144821428Y-90488095D01*
X144773809Y-90583333D01*
X144726190Y-90630952D01*
X144630952Y-90678571D01*
X144297619Y-90678571D01*
X145440476Y-91202380D02*
X145345238Y-91154761D01*
X145297619Y-91107142D01*
X145250000Y-91011904D01*
X145250000Y-90726190D01*
X145297619Y-90630952D01*
X145345238Y-90583333D01*
X145440476Y-90535714D01*
X145583333Y-90535714D01*
X145678571Y-90583333D01*
X145726190Y-90630952D01*
X145773809Y-90726190D01*
X145773809Y-91011904D01*
X145726190Y-91107142D01*
X145678571Y-91154761D01*
X145583333Y-91202380D01*
X145440476Y-91202380D01*
X146345238Y-91202380D02*
X146250000Y-91154761D01*
X146202380Y-91107142D01*
X146154761Y-91011904D01*
X146154761Y-90726190D01*
X146202380Y-90630952D01*
X146250000Y-90583333D01*
X146345238Y-90535714D01*
X146488095Y-90535714D01*
X146583333Y-90583333D01*
X146630952Y-90630952D01*
X146678571Y-90726190D01*
X146678571Y-91011904D01*
X146630952Y-91107142D01*
X146583333Y-91154761D01*
X146488095Y-91202380D01*
X146345238Y-91202380D01*
X146964285Y-90535714D02*
X147345238Y-90535714D01*
X147107142Y-90202380D02*
X147107142Y-91059523D01*
X147154761Y-91154761D01*
X147250000Y-91202380D01*
X147345238Y-91202380D01*
%TO.C,R2*%
X141245833Y-78452380D02*
X140912500Y-77976190D01*
X140674404Y-78452380D02*
X140674404Y-77452380D01*
X141055357Y-77452380D01*
X141150595Y-77500000D01*
X141198214Y-77547619D01*
X141245833Y-77642857D01*
X141245833Y-77785714D01*
X141198214Y-77880952D01*
X141150595Y-77928571D01*
X141055357Y-77976190D01*
X140674404Y-77976190D01*
X141626785Y-77547619D02*
X141674404Y-77500000D01*
X141769642Y-77452380D01*
X142007738Y-77452380D01*
X142102976Y-77500000D01*
X142150595Y-77547619D01*
X142198214Y-77642857D01*
X142198214Y-77738095D01*
X142150595Y-77880952D01*
X141579166Y-78452380D01*
X142198214Y-78452380D01*
%TO.C,U1*%
X115488095Y-93202380D02*
X115488095Y-94011904D01*
X115535714Y-94107142D01*
X115583333Y-94154761D01*
X115678571Y-94202380D01*
X115869047Y-94202380D01*
X115964285Y-94154761D01*
X116011904Y-94107142D01*
X116059523Y-94011904D01*
X116059523Y-93202380D01*
X117059523Y-94202380D02*
X116488095Y-94202380D01*
X116773809Y-94202380D02*
X116773809Y-93202380D01*
X116678571Y-93345238D01*
X116583333Y-93440476D01*
X116488095Y-93488095D01*
%TO.C,JP1*%
X115666666Y-107702380D02*
X115666666Y-108416666D01*
X115619047Y-108559523D01*
X115523809Y-108654761D01*
X115380952Y-108702380D01*
X115285714Y-108702380D01*
X116142857Y-108702380D02*
X116142857Y-107702380D01*
X116523809Y-107702380D01*
X116619047Y-107750000D01*
X116666666Y-107797619D01*
X116714285Y-107892857D01*
X116714285Y-108035714D01*
X116666666Y-108130952D01*
X116619047Y-108178571D01*
X116523809Y-108226190D01*
X116142857Y-108226190D01*
X117666666Y-108702380D02*
X117095238Y-108702380D01*
X117380952Y-108702380D02*
X117380952Y-107702380D01*
X117285714Y-107845238D01*
X117190476Y-107940476D01*
X117095238Y-107988095D01*
%TO.C,C5*%
X117583333Y-77107142D02*
X117535714Y-77154761D01*
X117392857Y-77202380D01*
X117297619Y-77202380D01*
X117154761Y-77154761D01*
X117059523Y-77059523D01*
X117011904Y-76964285D01*
X116964285Y-76773809D01*
X116964285Y-76630952D01*
X117011904Y-76440476D01*
X117059523Y-76345238D01*
X117154761Y-76250000D01*
X117297619Y-76202380D01*
X117392857Y-76202380D01*
X117535714Y-76250000D01*
X117583333Y-76297619D01*
X118488095Y-76202380D02*
X118011904Y-76202380D01*
X117964285Y-76678571D01*
X118011904Y-76630952D01*
X118107142Y-76583333D01*
X118345238Y-76583333D01*
X118440476Y-76630952D01*
X118488095Y-76678571D01*
X118535714Y-76773809D01*
X118535714Y-77011904D01*
X118488095Y-77107142D01*
X118440476Y-77154761D01*
X118345238Y-77202380D01*
X118107142Y-77202380D01*
X118011904Y-77154761D01*
X117964285Y-77107142D01*
%TO.C,U3*%
X138488095Y-81952380D02*
X138488095Y-82761904D01*
X138535714Y-82857142D01*
X138583333Y-82904761D01*
X138678571Y-82952380D01*
X138869047Y-82952380D01*
X138964285Y-82904761D01*
X139011904Y-82857142D01*
X139059523Y-82761904D01*
X139059523Y-81952380D01*
X139440476Y-81952380D02*
X140059523Y-81952380D01*
X139726190Y-82333333D01*
X139869047Y-82333333D01*
X139964285Y-82380952D01*
X140011904Y-82428571D01*
X140059523Y-82523809D01*
X140059523Y-82761904D01*
X140011904Y-82857142D01*
X139964285Y-82904761D01*
X139869047Y-82952380D01*
X139583333Y-82952380D01*
X139488095Y-82904761D01*
X139440476Y-82857142D01*
%TO.C,R1*%
X113083333Y-72202380D02*
X112750000Y-71726190D01*
X112511904Y-72202380D02*
X112511904Y-71202380D01*
X112892857Y-71202380D01*
X112988095Y-71250000D01*
X113035714Y-71297619D01*
X113083333Y-71392857D01*
X113083333Y-71535714D01*
X113035714Y-71630952D01*
X112988095Y-71678571D01*
X112892857Y-71726190D01*
X112511904Y-71726190D01*
X114035714Y-72202380D02*
X113464285Y-72202380D01*
X113750000Y-72202380D02*
X113750000Y-71202380D01*
X113654761Y-71345238D01*
X113559523Y-71440476D01*
X113464285Y-71488095D01*
%TO.C,C2*%
X114833333Y-99857142D02*
X114785714Y-99904761D01*
X114642857Y-99952380D01*
X114547619Y-99952380D01*
X114404761Y-99904761D01*
X114309523Y-99809523D01*
X114261904Y-99714285D01*
X114214285Y-99523809D01*
X114214285Y-99380952D01*
X114261904Y-99190476D01*
X114309523Y-99095238D01*
X114404761Y-99000000D01*
X114547619Y-98952380D01*
X114642857Y-98952380D01*
X114785714Y-99000000D01*
X114833333Y-99047619D01*
X115214285Y-99047619D02*
X115261904Y-99000000D01*
X115357142Y-98952380D01*
X115595238Y-98952380D01*
X115690476Y-99000000D01*
X115738095Y-99047619D01*
X115785714Y-99142857D01*
X115785714Y-99238095D01*
X115738095Y-99380952D01*
X115166666Y-99952380D01*
X115785714Y-99952380D01*
%TO.C,C7*%
X144083333Y-88107142D02*
X144035714Y-88154761D01*
X143892857Y-88202380D01*
X143797619Y-88202380D01*
X143654761Y-88154761D01*
X143559523Y-88059523D01*
X143511904Y-87964285D01*
X143464285Y-87773809D01*
X143464285Y-87630952D01*
X143511904Y-87440476D01*
X143559523Y-87345238D01*
X143654761Y-87250000D01*
X143797619Y-87202380D01*
X143892857Y-87202380D01*
X144035714Y-87250000D01*
X144083333Y-87297619D01*
X144416666Y-87202380D02*
X145083333Y-87202380D01*
X144654761Y-88202380D01*
%TO.C,C1*%
X126133333Y-111177142D02*
X126085714Y-111224761D01*
X125942857Y-111272380D01*
X125847619Y-111272380D01*
X125704761Y-111224761D01*
X125609523Y-111129523D01*
X125561904Y-111034285D01*
X125514285Y-110843809D01*
X125514285Y-110700952D01*
X125561904Y-110510476D01*
X125609523Y-110415238D01*
X125704761Y-110320000D01*
X125847619Y-110272380D01*
X125942857Y-110272380D01*
X126085714Y-110320000D01*
X126133333Y-110367619D01*
X127085714Y-111272380D02*
X126514285Y-111272380D01*
X126800000Y-111272380D02*
X126800000Y-110272380D01*
X126704761Y-110415238D01*
X126609523Y-110510476D01*
X126514285Y-110558095D01*
%TO.C,R3*%
X144083333Y-94202380D02*
X143750000Y-93726190D01*
X143511904Y-94202380D02*
X143511904Y-93202380D01*
X143892857Y-93202380D01*
X143988095Y-93250000D01*
X144035714Y-93297619D01*
X144083333Y-93392857D01*
X144083333Y-93535714D01*
X144035714Y-93630952D01*
X143988095Y-93678571D01*
X143892857Y-93726190D01*
X143511904Y-93726190D01*
X144416666Y-93202380D02*
X145035714Y-93202380D01*
X144702380Y-93583333D01*
X144845238Y-93583333D01*
X144940476Y-93630952D01*
X144988095Y-93678571D01*
X145035714Y-93773809D01*
X145035714Y-94011904D01*
X144988095Y-94107142D01*
X144940476Y-94154761D01*
X144845238Y-94202380D01*
X144559523Y-94202380D01*
X144464285Y-94154761D01*
X144416666Y-94107142D01*
%TO.C,C6*%
X109858333Y-71757142D02*
X109810714Y-71804761D01*
X109667857Y-71852380D01*
X109572619Y-71852380D01*
X109429761Y-71804761D01*
X109334523Y-71709523D01*
X109286904Y-71614285D01*
X109239285Y-71423809D01*
X109239285Y-71280952D01*
X109286904Y-71090476D01*
X109334523Y-70995238D01*
X109429761Y-70900000D01*
X109572619Y-70852380D01*
X109667857Y-70852380D01*
X109810714Y-70900000D01*
X109858333Y-70947619D01*
X110715476Y-70852380D02*
X110525000Y-70852380D01*
X110429761Y-70900000D01*
X110382142Y-70947619D01*
X110286904Y-71090476D01*
X110239285Y-71280952D01*
X110239285Y-71661904D01*
X110286904Y-71757142D01*
X110334523Y-71804761D01*
X110429761Y-71852380D01*
X110620238Y-71852380D01*
X110715476Y-71804761D01*
X110763095Y-71757142D01*
X110810714Y-71661904D01*
X110810714Y-71423809D01*
X110763095Y-71328571D01*
X110715476Y-71280952D01*
X110620238Y-71233333D01*
X110429761Y-71233333D01*
X110334523Y-71280952D01*
X110286904Y-71328571D01*
X110239285Y-71423809D01*
D11*
%TO.C,C3*%
X109985000Y-80688748D02*
X109985000Y-81211252D01*
X108515000Y-80688748D02*
X108515000Y-81211252D01*
%TO.C,J2*%
X111920000Y-80770000D02*
X111920000Y-80830000D01*
X111920000Y-79500000D02*
X111920000Y-78170000D01*
X111920000Y-80830000D02*
X114580000Y-80830000D01*
X111920000Y-78170000D02*
X113250000Y-78170000D01*
X114580000Y-80770000D02*
X114580000Y-80830000D01*
X111920000Y-80770000D02*
X114580000Y-80770000D01*
%TO.C,J10*%
X148830000Y-85020000D02*
X148830000Y-85080000D01*
X146170000Y-85020000D02*
X148830000Y-85020000D01*
X146170000Y-85080000D02*
X148830000Y-85080000D01*
X146170000Y-82420000D02*
X147500000Y-82420000D01*
X146170000Y-85020000D02*
X146170000Y-85080000D01*
X146170000Y-83750000D02*
X146170000Y-82420000D01*
%TO.C,J9*%
X141780000Y-97580000D02*
X141780000Y-94920000D01*
X126420000Y-97580000D02*
X126420000Y-96250000D01*
X129020000Y-97580000D02*
X141780000Y-97580000D01*
X129020000Y-94920000D02*
X141780000Y-94920000D01*
X127750000Y-97580000D02*
X126420000Y-97580000D01*
X129020000Y-97580000D02*
X129020000Y-94920000D01*
%TO.C,J3*%
X111920000Y-84580000D02*
X114580000Y-84580000D01*
X111920000Y-84520000D02*
X114580000Y-84520000D01*
X111920000Y-83250000D02*
X111920000Y-81920000D01*
X111920000Y-84520000D02*
X111920000Y-84580000D01*
X114580000Y-84520000D02*
X114580000Y-84580000D01*
X111920000Y-81920000D02*
X113250000Y-81920000D01*
%TO.C,J8*%
X126520000Y-117830000D02*
X126520000Y-115170000D01*
X126520000Y-117830000D02*
X146900000Y-117830000D01*
X146900000Y-117830000D02*
X146900000Y-115170000D01*
X126520000Y-115170000D02*
X146900000Y-115170000D01*
X123920000Y-117830000D02*
X123920000Y-116500000D01*
X125250000Y-117830000D02*
X123920000Y-117830000D01*
%TO.C,C4*%
X107627500Y-87937500D02*
X108002500Y-87937500D01*
X107490000Y-83990000D02*
X108190000Y-83990000D01*
X111010000Y-86620563D02*
X111010000Y-83990000D01*
X110310000Y-87320563D02*
X111010000Y-86620563D01*
X107490000Y-86620563D02*
X107490000Y-83990000D01*
X108190000Y-87320563D02*
X107490000Y-86620563D01*
X107815000Y-88125000D02*
X107815000Y-87750000D01*
X111010000Y-83990000D02*
X110310000Y-83990000D01*
%TO.C,SW1*%
X116170000Y-77250000D02*
X116170000Y-76750000D01*
X116170000Y-74750000D02*
X107170000Y-74750000D01*
X116170000Y-75250000D02*
X116170000Y-74750000D01*
X107170000Y-77250000D02*
X116170000Y-77250000D01*
X107170000Y-76750000D02*
X107170000Y-77250000D01*
X107170000Y-74750000D02*
X107170000Y-75250000D01*
%TO.C,U2*%
X137820000Y-65855000D02*
X137820000Y-72275000D01*
X119580000Y-91600000D02*
X120580000Y-91600000D01*
X137820000Y-90820000D02*
X137820000Y-91600000D01*
X119580000Y-65855000D02*
X137820000Y-65855000D01*
X119580000Y-72275000D02*
X119200000Y-72275000D01*
X137820000Y-91600000D02*
X136820000Y-91600000D01*
X119580000Y-65855000D02*
X119580000Y-72275000D01*
X119580000Y-90820000D02*
X119580000Y-91600000D01*
D12*
%TO.C,D1*%
X140960000Y-91750000D02*
G75*
G03*
X140960000Y-91750000I-50000J0D01*
G01*
D11*
%TO.C,C8*%
X141188748Y-86235000D02*
X141711252Y-86235000D01*
X141188748Y-84765000D02*
X141711252Y-84765000D01*
D10*
%TO.C,JP0*%
X144070000Y-89600000D02*
X144070000Y-90400000D01*
X144070000Y-90400000D02*
X143570000Y-90900000D01*
X139470000Y-89600000D02*
X139970000Y-89100000D01*
X143570000Y-90900000D02*
X139970000Y-90900000D01*
X143570000Y-89100000D02*
X144070000Y-89600000D01*
X139470000Y-90400000D02*
X139470000Y-89600000D01*
X139970000Y-90900000D02*
X139470000Y-90400000D01*
X139970000Y-89100000D02*
X143570000Y-89100000D01*
D11*
%TO.C,R2*%
X141185436Y-78765000D02*
X141639564Y-78765000D01*
X141185436Y-80235000D02*
X141639564Y-80235000D01*
%TO.C,J6*%
X115670000Y-88330000D02*
X118330000Y-88330000D01*
X115670000Y-87000000D02*
X115670000Y-85670000D01*
X115670000Y-85670000D02*
X117000000Y-85670000D01*
X115670000Y-88270000D02*
X118330000Y-88270000D01*
X115670000Y-88270000D02*
X115670000Y-88330000D01*
X118330000Y-88270000D02*
X118330000Y-88330000D01*
%TO.C,U1*%
X108340000Y-91900000D02*
X108340000Y-95660000D01*
X115160000Y-89650000D02*
X115160000Y-95660000D01*
X115160000Y-95660000D02*
X113900000Y-95660000D01*
X108340000Y-95660000D02*
X109600000Y-95660000D01*
%TO.C,JP1*%
X110200000Y-117587500D02*
X110500000Y-118187500D01*
X115110000Y-117387500D02*
X115110000Y-107167500D01*
X110500000Y-118187500D02*
X109900000Y-118187500D01*
X115110000Y-107167500D02*
X106390000Y-107167500D01*
X106390000Y-117387500D02*
X115110000Y-117387500D01*
X109900000Y-118187500D02*
X110200000Y-117587500D01*
X106390000Y-107167500D02*
X106390000Y-117387500D01*
%TO.C,J1*%
X115670000Y-80770000D02*
X118330000Y-80770000D01*
X115670000Y-80830000D02*
X118330000Y-80830000D01*
X115670000Y-80770000D02*
X115670000Y-80830000D01*
X118330000Y-80770000D02*
X118330000Y-80830000D01*
X115670000Y-78170000D02*
X117000000Y-78170000D01*
X115670000Y-79500000D02*
X115670000Y-78170000D01*
%TO.C,J11*%
X146170000Y-79500000D02*
X146170000Y-78170000D01*
X146170000Y-80830000D02*
X148830000Y-80830000D01*
X148830000Y-80770000D02*
X148830000Y-80830000D01*
X146170000Y-78170000D02*
X147500000Y-78170000D01*
X146170000Y-80770000D02*
X148830000Y-80770000D01*
X146170000Y-80770000D02*
X146170000Y-80830000D01*
%TO.C,C5*%
X117015000Y-74711252D02*
X117015000Y-74188748D01*
X118485000Y-74711252D02*
X118485000Y-74188748D01*
%TO.C,J7*%
X142020000Y-77055000D02*
X142020000Y-74395000D01*
X139420000Y-75725000D02*
X139420000Y-74395000D01*
X144620000Y-77055000D02*
X144620000Y-74395000D01*
X142020000Y-74395000D02*
X144620000Y-74395000D01*
X139420000Y-74395000D02*
X140750000Y-74395000D01*
X142020000Y-77055000D02*
X144620000Y-77055000D01*
%TO.C,U3*%
X142400000Y-80890000D02*
X140600000Y-80890000D01*
X140600000Y-84110000D02*
X143050000Y-84110000D01*
%TO.C,J4*%
X115670000Y-84520000D02*
X118330000Y-84520000D01*
X118330000Y-84520000D02*
X118330000Y-84580000D01*
X115670000Y-83250000D02*
X115670000Y-81920000D01*
X115670000Y-84580000D02*
X118330000Y-84580000D01*
X115670000Y-84520000D02*
X115670000Y-84580000D01*
X115670000Y-81920000D02*
X117000000Y-81920000D01*
%TO.C,R1*%
X114889564Y-72765000D02*
X114435436Y-72765000D01*
X114889564Y-74235000D02*
X114435436Y-74235000D01*
%TO.C,C2*%
X115093750Y-104741250D02*
X115093750Y-103953750D01*
X114460000Y-100154437D02*
X113395563Y-99090000D01*
X107640000Y-99090000D02*
X107640000Y-101440000D01*
X114460000Y-104845563D02*
X114460000Y-103560000D01*
X113395563Y-99090000D02*
X107640000Y-99090000D01*
X107640000Y-105910000D02*
X107640000Y-103560000D01*
X114460000Y-104845563D02*
X113395563Y-105910000D01*
X113395563Y-105910000D02*
X107640000Y-105910000D01*
X115487500Y-104347500D02*
X114700000Y-104347500D01*
X114460000Y-100154437D02*
X114460000Y-101440000D01*
%TO.C,C7*%
X141288748Y-87015000D02*
X141811252Y-87015000D01*
X141288748Y-88485000D02*
X141811252Y-88485000D01*
%TO.C,C1*%
X126038748Y-113235000D02*
X126561252Y-113235000D01*
X126038748Y-111765000D02*
X126561252Y-111765000D01*
%TO.C,J5*%
X111920000Y-88270000D02*
X114580000Y-88270000D01*
X111920000Y-88270000D02*
X111920000Y-88330000D01*
X111920000Y-87000000D02*
X111920000Y-85670000D01*
X111920000Y-88330000D02*
X114580000Y-88330000D01*
X114580000Y-88270000D02*
X114580000Y-88330000D01*
X111920000Y-85670000D02*
X113250000Y-85670000D01*
%TO.C,R3*%
X141814564Y-92765000D02*
X141360436Y-92765000D01*
X141814564Y-94235000D02*
X141360436Y-94235000D01*
%TO.C,J12*%
X146170000Y-88770000D02*
X148830000Y-88770000D01*
X146170000Y-88830000D02*
X148830000Y-88830000D01*
X146170000Y-87500000D02*
X146170000Y-86170000D01*
X148830000Y-88770000D02*
X148830000Y-88830000D01*
X146170000Y-88770000D02*
X146170000Y-88830000D01*
X146170000Y-86170000D02*
X147500000Y-86170000D01*
%TO.C,C6*%
X109313748Y-74160000D02*
X110736252Y-74160000D01*
X109313748Y-72340000D02*
X110736252Y-72340000D01*
%TD*%
M02*
