%TF.GenerationSoftware,KiCad,Pcbnew,5.99.0-unknown-2b86b34124~125~ubuntu18.04.1*%
%TF.CreationDate,2021-04-08T16:17:32+02:00*%
%TF.ProjectId,controlAVR155,636f6e74-726f-46c4-9156-523135352e6b,rev?*%
%TF.SameCoordinates,Original*%
%TF.FileFunction,Copper,L2,Bot*%
%TF.FilePolarity,Positive*%
%FSLAX46Y46*%
G04 Gerber Fmt 4.6, Leading zero omitted, Abs format (unit mm)*
G04 Created by KiCad (PCBNEW 5.99.0-unknown-2b86b34124~125~ubuntu18.04.1) date 2021-04-08 16:17:32*
%MOMM*%
%LPD*%
G01*
G04 APERTURE LIST*
G04 Aperture macros list*
%AMRoundRect*
0 Rectangle with rounded corners*
0 $1 Rounding radius*
0 $2 $3 $4 $5 $6 $7 $8 $9 X,Y pos of 4 corners*
0 Add a 4 corners polygon primitive as box body*
4,1,4,$2,$3,$4,$5,$6,$7,$8,$9,$2,$3,0*
0 Add four circle primitives for the rounded corners*
1,1,$1+$1,$2,$3*
1,1,$1+$1,$4,$5*
1,1,$1+$1,$6,$7*
1,1,$1+$1,$8,$9*
0 Add four rect primitives between the rounded corners*
20,1,$1+$1,$2,$3,$4,$5,0*
20,1,$1+$1,$4,$5,$6,$7,0*
20,1,$1+$1,$6,$7,$8,$9,0*
20,1,$1+$1,$8,$9,$2,$3,0*%
G04 Aperture macros list end*
%TA.AperFunction,ComponentPad*%
%ADD10R,1.700000X1.700000*%
%TD*%
%TA.AperFunction,ComponentPad*%
%ADD11O,1.700000X1.700000*%
%TD*%
%TA.AperFunction,ComponentPad*%
%ADD12C,1.400000*%
%TD*%
%TA.AperFunction,ComponentPad*%
%ADD13RoundRect,0.250001X1.099999X-1.099999X1.099999X1.099999X-1.099999X1.099999X-1.099999X-1.099999X0*%
%TD*%
%TA.AperFunction,ComponentPad*%
%ADD14C,2.700000*%
%TD*%
%TA.AperFunction,ViaPad*%
%ADD15C,1.000000*%
%TD*%
%TA.AperFunction,ViaPad*%
%ADD16C,0.800000*%
%TD*%
%TA.AperFunction,Conductor*%
%ADD17C,0.750000*%
%TD*%
%TA.AperFunction,Conductor*%
%ADD18C,0.250000*%
%TD*%
G04 APERTURE END LIST*
D10*
%TO.P,J2,1,Pin_1*%
%TO.N,/AUX1*%
X113250000Y-79500000D03*
%TD*%
%TO.P,J10,1,Pin_1*%
%TO.N,/<-RX IR*%
X147500000Y-83750000D03*
%TD*%
%TO.P,J9,1,Pin_1*%
%TO.N,unconnected-(J9-Pad1)*%
X127750000Y-96250000D03*
D11*
%TO.P,J9,2,Pin_2*%
%TO.N,unconnected-(J9-Pad2)*%
X130290000Y-96250000D03*
%TO.P,J9,3,Pin_3*%
%TO.N,Mute*%
X132830000Y-96250000D03*
%TO.P,J9,4,Pin_4*%
%TO.N,unconnected-(J9-Pad4)*%
X135370000Y-96250000D03*
%TO.P,J9,5,Pin_5*%
%TO.N,unconnected-(J9-Pad5)*%
X137910000Y-96250000D03*
%TO.P,J9,6,Pin_6*%
%TO.N,unconnected-(J9-Pad6)*%
X140450000Y-96250000D03*
%TD*%
D10*
%TO.P,J3,1,Pin_1*%
%TO.N,/AUX2*%
X113250000Y-83250000D03*
%TD*%
%TO.P,J8,1,Pin_1*%
%TO.N,+5V*%
X125250000Y-116500000D03*
D11*
%TO.P,J8,2,Pin_2*%
%TO.N,unconnected-(J8-Pad2)*%
X127790000Y-116500000D03*
%TO.P,J8,3,Pin_3*%
%TO.N,GND*%
X130330000Y-116500000D03*
%TO.P,J8,4,Pin_4*%
%TO.N,WSEL*%
X132870000Y-116500000D03*
%TO.P,J8,5,Pin_5*%
%TO.N,DIN*%
X135410000Y-116500000D03*
%TO.P,J8,6,Pin_6*%
%TO.N,BCLK*%
X137950000Y-116500000D03*
%TO.P,J8,7,Pin_7*%
%TO.N,unconnected-(J8-Pad7)*%
X140490000Y-116500000D03*
%TO.P,J8,8,Pin_8*%
%TO.N,unconnected-(J8-Pad8)*%
X143030000Y-116500000D03*
%TO.P,J8,9,Pin_9*%
%TO.N,unconnected-(J8-Pad9)*%
X145570000Y-116500000D03*
%TD*%
D12*
%TO.P,JP0,1,1*%
%TO.N,Net-(C7-Pad1)*%
X140500000Y-90000000D03*
%TO.P,JP0,2,2*%
%TO.N,GND*%
X143040000Y-90000000D03*
%TD*%
D10*
%TO.P,J6,1,Pin_1*%
%TO.N,/AUX5*%
X117000000Y-87000000D03*
%TD*%
D13*
%TO.P,JP1,1,Pin_1*%
%TO.N,GND*%
X110200000Y-114777500D03*
D14*
%TO.P,JP1,2,Pin_2*%
%TO.N,+5V*%
X110200000Y-109777500D03*
%TD*%
D10*
%TO.P,J1,1,Pin_1*%
%TO.N,/ADC1_0*%
X117000000Y-79500000D03*
%TD*%
%TO.P,J11,1,Pin_1*%
%TO.N,/Out CPU->*%
X147500000Y-79500000D03*
%TD*%
%TO.P,J7,1,Pin_1*%
%TO.N,/TXD*%
X140750000Y-75725000D03*
D11*
%TO.P,J7,2,Pin_2*%
%TO.N,/RXD*%
X143290000Y-75725000D03*
%TD*%
D10*
%TO.P,J4,1,Pin_1*%
%TO.N,/AUX3*%
X117000000Y-83250000D03*
%TD*%
%TO.P,J5,1,Pin_1*%
%TO.N,/AUX4*%
X113250000Y-87000000D03*
%TD*%
%TO.P,J12,1,Pin_1*%
%TO.N,GND*%
X147500000Y-87500000D03*
%TD*%
D15*
%TO.N,+5V*%
X109450000Y-93450000D03*
D16*
%TO.N,+3V3*%
X111750000Y-92500000D03*
X140550000Y-84200000D03*
X111750000Y-94500000D03*
X107500000Y-87250000D03*
X116500000Y-74500000D03*
X109250000Y-79000000D03*
X111750000Y-93500000D03*
%TO.N,/AUX1*%
X122250000Y-78500000D03*
%TO.N,/AUX2*%
X122250000Y-81250000D03*
%TO.N,/AUX4*%
X122250000Y-83500000D03*
%TO.N,BCLK*%
X122250000Y-87750000D03*
%TO.N,DIN*%
X135400000Y-110500000D03*
X135400000Y-76005000D03*
%TO.N,WSEL*%
X132750000Y-110500000D03*
X124250000Y-87750000D03*
%TO.N,/Out CPU->*%
X144250000Y-83500000D03*
X144250000Y-79500000D03*
%TD*%
D17*
%TO.N,+5V*%
X109450000Y-93450000D02*
X109450000Y-99050000D01*
X110200000Y-99800000D02*
X110200000Y-109777500D01*
X109450000Y-99050000D02*
X110200000Y-99800000D01*
D18*
%TO.N,+3V3*%
X123250000Y-88250000D02*
X123250000Y-87250000D01*
%TO.N,/AUX1*%
X122250000Y-78000000D02*
X122000000Y-77750000D01*
X113750000Y-77750000D02*
X113250000Y-78250000D01*
X122000000Y-77750000D02*
X113750000Y-77750000D01*
X122250000Y-78500000D02*
X122250000Y-78000000D01*
X113250000Y-78250000D02*
X113250000Y-79500000D01*
%TO.N,/AUX2*%
X113250000Y-81750000D02*
X113250000Y-83250000D01*
X113750000Y-81250000D02*
X113250000Y-81750000D01*
X122250000Y-81250000D02*
X113750000Y-81250000D01*
%TO.N,/AUX4*%
X121518293Y-84981707D02*
X121268293Y-84981707D01*
X122250000Y-84250000D02*
X121518293Y-84981707D01*
X113768293Y-84981707D02*
X113250000Y-85500000D01*
X113250000Y-85500000D02*
X113250000Y-87000000D01*
X121518293Y-84981707D02*
X113768293Y-84981707D01*
X113768293Y-84981707D02*
X113500000Y-85250000D01*
X122250000Y-83500000D02*
X122250000Y-84250000D01*
%TO.N,BCLK*%
X123250000Y-112750000D02*
X124000000Y-112750000D01*
X137950000Y-116500000D02*
X137950000Y-113700000D01*
X137950000Y-113700000D02*
X137500000Y-113250000D01*
X123250000Y-112750000D02*
X137000000Y-112750000D01*
X122250000Y-87750000D02*
X122250000Y-111750000D01*
X122250000Y-111750000D02*
X123250000Y-112750000D01*
X137000000Y-112750000D02*
X137950000Y-113700000D01*
%TO.N,DIN*%
X136205000Y-76005000D02*
X136700000Y-76500000D01*
X135400000Y-76005000D02*
X136205000Y-76005000D01*
X136700000Y-97600000D02*
X135400000Y-98900000D01*
X135400000Y-98900000D02*
X135400000Y-110500000D01*
X136700000Y-76500000D02*
X136700000Y-97600000D01*
%TO.N,WSEL*%
X124250000Y-87750000D02*
X124250000Y-109750000D01*
X124250000Y-109750000D02*
X125000000Y-110500000D01*
X125000000Y-110500000D02*
X132750000Y-110500000D01*
%TO.N,/Out CPU->*%
X144250000Y-83500000D02*
X144250000Y-79500000D01*
%TD*%
%TA.AperFunction,Conductor*%
%TO.N,+3V3*%
G36*
X114192121Y-70228002D02*
G01*
X114238614Y-70281658D01*
X114250000Y-70334000D01*
X114250000Y-72000000D01*
X143000000Y-72000000D01*
X143000000Y-70334000D01*
X143020002Y-70265879D01*
X143073658Y-70219386D01*
X143126000Y-70208000D01*
X149166000Y-70208000D01*
X149234121Y-70228002D01*
X149280614Y-70281658D01*
X149292000Y-70334000D01*
X149292000Y-118866000D01*
X149271998Y-118934121D01*
X149218342Y-118980614D01*
X149166000Y-118992000D01*
X105634000Y-118992000D01*
X105565879Y-118971998D01*
X105519386Y-118918342D01*
X105508000Y-118866000D01*
X105508000Y-113621479D01*
X108341500Y-113621479D01*
X108341500Y-115920385D01*
X108356978Y-116053142D01*
X108417313Y-116219364D01*
X108421324Y-116225481D01*
X108496517Y-116340168D01*
X108514270Y-116367246D01*
X108642646Y-116488858D01*
X108795556Y-116577675D01*
X108964797Y-116628933D01*
X108971237Y-116629508D01*
X108971238Y-116629508D01*
X109041186Y-116635751D01*
X109041192Y-116635751D01*
X109043979Y-116636000D01*
X111342885Y-116636000D01*
X111438105Y-116624898D01*
X111468370Y-116621370D01*
X111468371Y-116621370D01*
X111475642Y-116620522D01*
X111641864Y-116560187D01*
X111745049Y-116492535D01*
X111783626Y-116467243D01*
X111783629Y-116467241D01*
X111789746Y-116463230D01*
X111911358Y-116334854D01*
X112000175Y-116181944D01*
X112051433Y-116012703D01*
X112058500Y-115933521D01*
X112058500Y-113634615D01*
X112043022Y-113501858D01*
X111982687Y-113335636D01*
X111931697Y-113257864D01*
X111889743Y-113193874D01*
X111889741Y-113193871D01*
X111885730Y-113187754D01*
X111757354Y-113066142D01*
X111604444Y-112977325D01*
X111435203Y-112926067D01*
X111428763Y-112925492D01*
X111428762Y-112925492D01*
X111358814Y-112919249D01*
X111358808Y-112919249D01*
X111356021Y-112919000D01*
X109057115Y-112919000D01*
X108961895Y-112930102D01*
X108931630Y-112933630D01*
X108931629Y-112933630D01*
X108924358Y-112934478D01*
X108758136Y-112994813D01*
X108686528Y-113041762D01*
X108616374Y-113087757D01*
X108616371Y-113087759D01*
X108610254Y-113091770D01*
X108488642Y-113220146D01*
X108399825Y-113373056D01*
X108348567Y-113542297D01*
X108347992Y-113548737D01*
X108347992Y-113548738D01*
X108342132Y-113614401D01*
X108341500Y-113621479D01*
X105508000Y-113621479D01*
X105508000Y-109862034D01*
X108338418Y-109862034D01*
X108338953Y-109866552D01*
X108338953Y-109866558D01*
X108359335Y-110038762D01*
X108370120Y-110129879D01*
X108371304Y-110134281D01*
X108371305Y-110134288D01*
X108394033Y-110218813D01*
X108440155Y-110390343D01*
X108547055Y-110637969D01*
X108549445Y-110641846D01*
X108549449Y-110641854D01*
X108686188Y-110863684D01*
X108688583Y-110867569D01*
X108861772Y-111074333D01*
X109062994Y-111253932D01*
X109288036Y-111402601D01*
X109357906Y-111435405D01*
X109528046Y-111515286D01*
X109528050Y-111515288D01*
X109532181Y-111517227D01*
X109790317Y-111595409D01*
X110057034Y-111635508D01*
X110061599Y-111635528D01*
X110061600Y-111635528D01*
X110188177Y-111636080D01*
X110326746Y-111636685D01*
X110593804Y-111598915D01*
X110852611Y-111522989D01*
X110985106Y-111462188D01*
X111093600Y-111412401D01*
X111093606Y-111412398D01*
X111097748Y-111410497D01*
X111101573Y-111408018D01*
X111101578Y-111408015D01*
X111320249Y-111266280D01*
X111320251Y-111266279D01*
X111324078Y-111263798D01*
X111526861Y-111085962D01*
X111640332Y-110952869D01*
X111698893Y-110884182D01*
X111698894Y-110884181D01*
X111701847Y-110880717D01*
X111845373Y-110652360D01*
X111847215Y-110648195D01*
X111847218Y-110648188D01*
X111952586Y-110409849D01*
X111952588Y-110409844D01*
X111954430Y-110405677D01*
X112026735Y-110145834D01*
X112057891Y-109900930D01*
X112060378Y-109881382D01*
X112060378Y-109881379D01*
X112060773Y-109878276D01*
X112061023Y-109869061D01*
X112063415Y-109780637D01*
X112063500Y-109777500D01*
X112043981Y-109508492D01*
X111985834Y-109245120D01*
X111921276Y-109074720D01*
X111891895Y-108997169D01*
X111891892Y-108997162D01*
X111890277Y-108992900D01*
X111759310Y-108757116D01*
X111595679Y-108542708D01*
X111402810Y-108354166D01*
X111252274Y-108244594D01*
X111188437Y-108198128D01*
X111188434Y-108198126D01*
X111184745Y-108195441D01*
X111180711Y-108193319D01*
X111180702Y-108193313D01*
X111150832Y-108177598D01*
X111099860Y-108128179D01*
X111083500Y-108066090D01*
X111083500Y-99880296D01*
X111085051Y-99860585D01*
X111086250Y-99853016D01*
X111087282Y-99846500D01*
X111083673Y-99777634D01*
X111083500Y-99771040D01*
X111083500Y-99752428D01*
X111083155Y-99749143D01*
X111083154Y-99749130D01*
X111081554Y-99733912D01*
X111081036Y-99727330D01*
X111080583Y-99718672D01*
X111077561Y-99661007D01*
X111075853Y-99654633D01*
X111075852Y-99654626D01*
X111074090Y-99648051D01*
X111070488Y-99628616D01*
X111069776Y-99621845D01*
X111069774Y-99621837D01*
X111069084Y-99615270D01*
X111048553Y-99552081D01*
X111046680Y-99545757D01*
X111031196Y-99487970D01*
X111031195Y-99487966D01*
X111029486Y-99481590D01*
X111026490Y-99475711D01*
X111026487Y-99475702D01*
X111023395Y-99469634D01*
X111015831Y-99451373D01*
X111013728Y-99444900D01*
X111013726Y-99444895D01*
X111011685Y-99438614D01*
X110978468Y-99381080D01*
X110975322Y-99375285D01*
X110948158Y-99321974D01*
X110948156Y-99321971D01*
X110945159Y-99316089D01*
X110941007Y-99310961D01*
X110941004Y-99310957D01*
X110936719Y-99305666D01*
X110925521Y-99289373D01*
X110922113Y-99283471D01*
X110918812Y-99277753D01*
X110914395Y-99272847D01*
X110914391Y-99272842D01*
X110874352Y-99228375D01*
X110870064Y-99223355D01*
X110860444Y-99211475D01*
X110858367Y-99208910D01*
X110845225Y-99195768D01*
X110840684Y-99190983D01*
X110798945Y-99144627D01*
X110798944Y-99144626D01*
X110794523Y-99139716D01*
X110782978Y-99131328D01*
X110767944Y-99118487D01*
X110370405Y-98720948D01*
X110336379Y-98658636D01*
X110333500Y-98631853D01*
X110333500Y-93970117D01*
X110349944Y-93907880D01*
X110372831Y-93867591D01*
X110375878Y-93862228D01*
X110438314Y-93674539D01*
X110463105Y-93478299D01*
X110463500Y-93450000D01*
X110444198Y-93253143D01*
X110387027Y-93063785D01*
X110294166Y-92889138D01*
X110223973Y-92803073D01*
X110173045Y-92740628D01*
X110173042Y-92740625D01*
X110169150Y-92735853D01*
X110164401Y-92731924D01*
X110021491Y-92613698D01*
X110021486Y-92613695D01*
X110016742Y-92609770D01*
X110011323Y-92606840D01*
X110011320Y-92606838D01*
X109848165Y-92518621D01*
X109848161Y-92518619D01*
X109842747Y-92515692D01*
X109836867Y-92513872D01*
X109836865Y-92513871D01*
X109787317Y-92498533D01*
X109653792Y-92457200D01*
X109647674Y-92456557D01*
X109647669Y-92456556D01*
X109463205Y-92437169D01*
X109463203Y-92437169D01*
X109457076Y-92436525D01*
X109374226Y-92444065D01*
X109266228Y-92453893D01*
X109266225Y-92453894D01*
X109260089Y-92454452D01*
X109254183Y-92456190D01*
X109254179Y-92456191D01*
X109112779Y-92497808D01*
X109070336Y-92510299D01*
X108895045Y-92601939D01*
X108740891Y-92725882D01*
X108736933Y-92730599D01*
X108736931Y-92730601D01*
X108653347Y-92830213D01*
X108613747Y-92877406D01*
X108610783Y-92882798D01*
X108610780Y-92882802D01*
X108533031Y-93024227D01*
X108518456Y-93050740D01*
X108458647Y-93239282D01*
X108436599Y-93435849D01*
X108453150Y-93632956D01*
X108507672Y-93823094D01*
X108510490Y-93828577D01*
X108552566Y-93910448D01*
X108566500Y-93968042D01*
X108566500Y-98969697D01*
X108564949Y-98989408D01*
X108562717Y-99003500D01*
X108563062Y-99010087D01*
X108563062Y-99010091D01*
X108566327Y-99072377D01*
X108566500Y-99078972D01*
X108566500Y-99097572D01*
X108566844Y-99100843D01*
X108566844Y-99100846D01*
X108568445Y-99116081D01*
X108568962Y-99122655D01*
X108571046Y-99162404D01*
X108572439Y-99188992D01*
X108574147Y-99195366D01*
X108574148Y-99195373D01*
X108575911Y-99201952D01*
X108579512Y-99221383D01*
X108580224Y-99228157D01*
X108580226Y-99228167D01*
X108580916Y-99234730D01*
X108601450Y-99297928D01*
X108603317Y-99304229D01*
X108620514Y-99368409D01*
X108623508Y-99374285D01*
X108623509Y-99374288D01*
X108626604Y-99380363D01*
X108634165Y-99398618D01*
X108636273Y-99405104D01*
X108636276Y-99405110D01*
X108638315Y-99411386D01*
X108661402Y-99451373D01*
X108671538Y-99468930D01*
X108674685Y-99474726D01*
X108704841Y-99533911D01*
X108708996Y-99539042D01*
X108713281Y-99544334D01*
X108724478Y-99560626D01*
X108731188Y-99572247D01*
X108735605Y-99577153D01*
X108735609Y-99577158D01*
X108775648Y-99621625D01*
X108779934Y-99626642D01*
X108791633Y-99641090D01*
X108804775Y-99654232D01*
X108809316Y-99659017D01*
X108855477Y-99710284D01*
X108860822Y-99714167D01*
X108867022Y-99718672D01*
X108882056Y-99731513D01*
X109279595Y-100129052D01*
X109313621Y-100191364D01*
X109316500Y-100218147D01*
X109316500Y-108068799D01*
X109296498Y-108136920D01*
X109254166Y-108177530D01*
X109144502Y-108241741D01*
X108933861Y-108410194D01*
X108749744Y-108607291D01*
X108747145Y-108611038D01*
X108598610Y-108825148D01*
X108598607Y-108825153D01*
X108596007Y-108828901D01*
X108475872Y-109070383D01*
X108474451Y-109074717D01*
X108474450Y-109074720D01*
X108417130Y-109249576D01*
X108391854Y-109326679D01*
X108345714Y-109592418D01*
X108343076Y-109689911D01*
X108339943Y-109805695D01*
X108338418Y-109862034D01*
X105508000Y-109862034D01*
X105508000Y-78650000D01*
X111886500Y-78650000D01*
X111886500Y-80350000D01*
X111891727Y-80423079D01*
X111932904Y-80563316D01*
X111943119Y-80579211D01*
X112007051Y-80678691D01*
X112007053Y-80678694D01*
X112011923Y-80686271D01*
X112018733Y-80692172D01*
X112115569Y-80776082D01*
X112115572Y-80776084D01*
X112122381Y-80781984D01*
X112255330Y-80842700D01*
X112264245Y-80843982D01*
X112264246Y-80843982D01*
X112395552Y-80862861D01*
X112395559Y-80862862D01*
X112400000Y-80863500D01*
X112936406Y-80863500D01*
X113004527Y-80883502D01*
X113051020Y-80937158D01*
X113061124Y-81007432D01*
X113031630Y-81072012D01*
X113025501Y-81078595D01*
X112857487Y-81246609D01*
X112849399Y-81253969D01*
X112843005Y-81258027D01*
X112837580Y-81263804D01*
X112797131Y-81306878D01*
X112794376Y-81309720D01*
X112774062Y-81330034D01*
X112771417Y-81333445D01*
X112763713Y-81342465D01*
X112733443Y-81374699D01*
X112729626Y-81381643D01*
X112729624Y-81381645D01*
X112723682Y-81392453D01*
X112712828Y-81408977D01*
X112700417Y-81424977D01*
X112697270Y-81432248D01*
X112697270Y-81432249D01*
X112682859Y-81465551D01*
X112677638Y-81476207D01*
X112656338Y-81514952D01*
X112654366Y-81522635D01*
X112654365Y-81522636D01*
X112651301Y-81534568D01*
X112644897Y-81553272D01*
X112640001Y-81564585D01*
X112639999Y-81564592D01*
X112636852Y-81571864D01*
X112635613Y-81579688D01*
X112635612Y-81579691D01*
X112629935Y-81615535D01*
X112627528Y-81627156D01*
X112618013Y-81664218D01*
X112616535Y-81669975D01*
X112616500Y-81670531D01*
X112616500Y-81690452D01*
X112614949Y-81710162D01*
X112611816Y-81729944D01*
X112612562Y-81737837D01*
X112612562Y-81737840D01*
X112613583Y-81748646D01*
X112600079Y-81818346D01*
X112551035Y-81869681D01*
X112488142Y-81886500D01*
X112400000Y-81886500D01*
X112326921Y-81891727D01*
X112273884Y-81907300D01*
X112195330Y-81930365D01*
X112195328Y-81930366D01*
X112186684Y-81932904D01*
X112179105Y-81937775D01*
X112071309Y-82007051D01*
X112071306Y-82007053D01*
X112063729Y-82011923D01*
X112057828Y-82018733D01*
X111973918Y-82115569D01*
X111973916Y-82115572D01*
X111968016Y-82122381D01*
X111907300Y-82255330D01*
X111906018Y-82264245D01*
X111906018Y-82264246D01*
X111887139Y-82395552D01*
X111887138Y-82395559D01*
X111886500Y-82400000D01*
X111886500Y-84100000D01*
X111891727Y-84173079D01*
X111900887Y-84204276D01*
X111928886Y-84299631D01*
X111932904Y-84313316D01*
X111937775Y-84320895D01*
X112007051Y-84428691D01*
X112007053Y-84428694D01*
X112011923Y-84436271D01*
X112018733Y-84442172D01*
X112115569Y-84526082D01*
X112115572Y-84526084D01*
X112122381Y-84531984D01*
X112130579Y-84535728D01*
X112200700Y-84567751D01*
X112255330Y-84592700D01*
X112264245Y-84593982D01*
X112264246Y-84593982D01*
X112395552Y-84612861D01*
X112395559Y-84612862D01*
X112400000Y-84613500D01*
X112936406Y-84613500D01*
X113004527Y-84633502D01*
X113051020Y-84687158D01*
X113061124Y-84757432D01*
X113031630Y-84822012D01*
X113025501Y-84828595D01*
X112857487Y-84996609D01*
X112849399Y-85003969D01*
X112843005Y-85008027D01*
X112837580Y-85013804D01*
X112797131Y-85056878D01*
X112794376Y-85059720D01*
X112774062Y-85080034D01*
X112771417Y-85083445D01*
X112763713Y-85092465D01*
X112733443Y-85124699D01*
X112729626Y-85131643D01*
X112729624Y-85131645D01*
X112723682Y-85142453D01*
X112712828Y-85158977D01*
X112700417Y-85174977D01*
X112697270Y-85182248D01*
X112697270Y-85182249D01*
X112682859Y-85215551D01*
X112677638Y-85226207D01*
X112656338Y-85264952D01*
X112654366Y-85272635D01*
X112654365Y-85272636D01*
X112651301Y-85284568D01*
X112644897Y-85303272D01*
X112640001Y-85314585D01*
X112639999Y-85314592D01*
X112636852Y-85321864D01*
X112635613Y-85329688D01*
X112635612Y-85329691D01*
X112629935Y-85365535D01*
X112627528Y-85377156D01*
X112618230Y-85413372D01*
X112616535Y-85419975D01*
X112616500Y-85420531D01*
X112616500Y-85440452D01*
X112614949Y-85460162D01*
X112611816Y-85479944D01*
X112612562Y-85487837D01*
X112612562Y-85487840D01*
X112613583Y-85498646D01*
X112600079Y-85568346D01*
X112551035Y-85619681D01*
X112488142Y-85636500D01*
X112400000Y-85636500D01*
X112326921Y-85641727D01*
X112273884Y-85657300D01*
X112195330Y-85680365D01*
X112195328Y-85680366D01*
X112186684Y-85682904D01*
X112179105Y-85687775D01*
X112071309Y-85757051D01*
X112071306Y-85757053D01*
X112063729Y-85761923D01*
X112057828Y-85768733D01*
X111973918Y-85865569D01*
X111973916Y-85865572D01*
X111968016Y-85872381D01*
X111907300Y-86005330D01*
X111906018Y-86014245D01*
X111906018Y-86014246D01*
X111887139Y-86145552D01*
X111887138Y-86145559D01*
X111886500Y-86150000D01*
X111886500Y-87850000D01*
X111891727Y-87923079D01*
X111932904Y-88063316D01*
X111937775Y-88070895D01*
X112007051Y-88178691D01*
X112007053Y-88178694D01*
X112011923Y-88186271D01*
X112018733Y-88192172D01*
X112115569Y-88276082D01*
X112115572Y-88276084D01*
X112122381Y-88281984D01*
X112255330Y-88342700D01*
X112264245Y-88343982D01*
X112264246Y-88343982D01*
X112395552Y-88362861D01*
X112395559Y-88362862D01*
X112400000Y-88363500D01*
X114100000Y-88363500D01*
X114173079Y-88358273D01*
X114251165Y-88335345D01*
X114304670Y-88319635D01*
X114304672Y-88319634D01*
X114313316Y-88317096D01*
X114367951Y-88281984D01*
X114428691Y-88242949D01*
X114428694Y-88242947D01*
X114436271Y-88238077D01*
X114476048Y-88192172D01*
X114526082Y-88134431D01*
X114526084Y-88134428D01*
X114531984Y-88127619D01*
X114592700Y-87994670D01*
X114600571Y-87939927D01*
X114612861Y-87854448D01*
X114612862Y-87854441D01*
X114613500Y-87850000D01*
X114613500Y-86150000D01*
X114608273Y-86076921D01*
X114567096Y-85936684D01*
X114488077Y-85813729D01*
X114489931Y-85812537D01*
X114465545Y-85759147D01*
X114475644Y-85688872D01*
X114522133Y-85635214D01*
X114590261Y-85615207D01*
X115664957Y-85615207D01*
X115733078Y-85635209D01*
X115779571Y-85688865D01*
X115789675Y-85759139D01*
X115760181Y-85823719D01*
X115723921Y-85865565D01*
X115723918Y-85865570D01*
X115718016Y-85872381D01*
X115657300Y-86005330D01*
X115656018Y-86014245D01*
X115656018Y-86014246D01*
X115637139Y-86145552D01*
X115637138Y-86145559D01*
X115636500Y-86150000D01*
X115636500Y-87850000D01*
X115641727Y-87923079D01*
X115682904Y-88063316D01*
X115687775Y-88070895D01*
X115757051Y-88178691D01*
X115757053Y-88178694D01*
X115761923Y-88186271D01*
X115768733Y-88192172D01*
X115865569Y-88276082D01*
X115865572Y-88276084D01*
X115872381Y-88281984D01*
X116005330Y-88342700D01*
X116014245Y-88343982D01*
X116014246Y-88343982D01*
X116145552Y-88362861D01*
X116145559Y-88362862D01*
X116150000Y-88363500D01*
X117850000Y-88363500D01*
X117923079Y-88358273D01*
X118001165Y-88335345D01*
X118054670Y-88319635D01*
X118054672Y-88319634D01*
X118063316Y-88317096D01*
X118117951Y-88281984D01*
X118178691Y-88242949D01*
X118178694Y-88242947D01*
X118186271Y-88238077D01*
X118226048Y-88192172D01*
X118276082Y-88134431D01*
X118276084Y-88134428D01*
X118281984Y-88127619D01*
X118342700Y-87994670D01*
X118350571Y-87939927D01*
X118362861Y-87854448D01*
X118362862Y-87854441D01*
X118363500Y-87850000D01*
X118363500Y-87750000D01*
X121336500Y-87750000D01*
X121337190Y-87756565D01*
X121354628Y-87922473D01*
X121356462Y-87939927D01*
X121415476Y-88121554D01*
X121418779Y-88127276D01*
X121418780Y-88127277D01*
X121448464Y-88178691D01*
X121510963Y-88286942D01*
X121515381Y-88291849D01*
X121515382Y-88291850D01*
X121584136Y-88368209D01*
X121614854Y-88432216D01*
X121616500Y-88452519D01*
X121616500Y-111671616D01*
X121615986Y-111682520D01*
X121614334Y-111689911D01*
X121614583Y-111697837D01*
X121614583Y-111697838D01*
X121616438Y-111756866D01*
X121616500Y-111760823D01*
X121616500Y-111789578D01*
X121616996Y-111793503D01*
X121616996Y-111793504D01*
X121617039Y-111793843D01*
X121617972Y-111805687D01*
X121619361Y-111849883D01*
X121621573Y-111857495D01*
X121625012Y-111869333D01*
X121629022Y-111888695D01*
X121631560Y-111908788D01*
X121634476Y-111916153D01*
X121634477Y-111916157D01*
X121647837Y-111949901D01*
X121651681Y-111961128D01*
X121664014Y-112003578D01*
X121668052Y-112010406D01*
X121674323Y-112021011D01*
X121683019Y-112038762D01*
X121687558Y-112050226D01*
X121690478Y-112057600D01*
X121707206Y-112080624D01*
X121716465Y-112093367D01*
X121722983Y-112103290D01*
X121745486Y-112141341D01*
X121745855Y-112141759D01*
X121759938Y-112155842D01*
X121772772Y-112170867D01*
X121784554Y-112187083D01*
X121818335Y-112215029D01*
X121827115Y-112223019D01*
X122746609Y-113142513D01*
X122753969Y-113150601D01*
X122758027Y-113156995D01*
X122763804Y-113162420D01*
X122806878Y-113202869D01*
X122809720Y-113205624D01*
X122830034Y-113225938D01*
X122833445Y-113228583D01*
X122842465Y-113236287D01*
X122874699Y-113266557D01*
X122881643Y-113270374D01*
X122881645Y-113270376D01*
X122892453Y-113276318D01*
X122908977Y-113287172D01*
X122918711Y-113294723D01*
X122918713Y-113294724D01*
X122924977Y-113299583D01*
X122965561Y-113317146D01*
X122976190Y-113322353D01*
X123014952Y-113343662D01*
X123034578Y-113348701D01*
X123053271Y-113355102D01*
X123071865Y-113363148D01*
X123112511Y-113369586D01*
X123115531Y-113370064D01*
X123127154Y-113372471D01*
X123169975Y-113383465D01*
X123170531Y-113383500D01*
X123190447Y-113383500D01*
X123210157Y-113385051D01*
X123229945Y-113388185D01*
X123237837Y-113387439D01*
X123273593Y-113384059D01*
X123285451Y-113383500D01*
X136685406Y-113383500D01*
X136753527Y-113403502D01*
X136774501Y-113420405D01*
X137279595Y-113925499D01*
X137313621Y-113987811D01*
X137316500Y-114014594D01*
X137316500Y-115224302D01*
X137296498Y-115292423D01*
X137255867Y-115332020D01*
X137146631Y-115398306D01*
X137142601Y-115401803D01*
X137016406Y-115511309D01*
X136972492Y-115549415D01*
X136969109Y-115553541D01*
X136969105Y-115553545D01*
X136934545Y-115595695D01*
X136826304Y-115727705D01*
X136823667Y-115732338D01*
X136823666Y-115732339D01*
X136790116Y-115791278D01*
X136739033Y-115840584D01*
X136669402Y-115854445D01*
X136603332Y-115828461D01*
X136576094Y-115799312D01*
X136570686Y-115791278D01*
X136478599Y-115654496D01*
X136475607Y-115650052D01*
X136475605Y-115650050D01*
X136472627Y-115645626D01*
X136313482Y-115478799D01*
X136128504Y-115341171D01*
X136123753Y-115338755D01*
X136123749Y-115338753D01*
X135927740Y-115239097D01*
X135927739Y-115239097D01*
X135922982Y-115236678D01*
X135782033Y-115192912D01*
X135707895Y-115169891D01*
X135707889Y-115169890D01*
X135702792Y-115168307D01*
X135597798Y-115154391D01*
X135479515Y-115138714D01*
X135479510Y-115138714D01*
X135474230Y-115138014D01*
X135468900Y-115138214D01*
X135468899Y-115138214D01*
X135375320Y-115141727D01*
X135243831Y-115146663D01*
X135199246Y-115156018D01*
X135023411Y-115192912D01*
X135023408Y-115192913D01*
X135018184Y-115194009D01*
X134803740Y-115278697D01*
X134606631Y-115398306D01*
X134602601Y-115401803D01*
X134476406Y-115511309D01*
X134432492Y-115549415D01*
X134429109Y-115553541D01*
X134429105Y-115553545D01*
X134394545Y-115595695D01*
X134286304Y-115727705D01*
X134283667Y-115732338D01*
X134283666Y-115732339D01*
X134250116Y-115791278D01*
X134199033Y-115840584D01*
X134129402Y-115854445D01*
X134063332Y-115828461D01*
X134036094Y-115799312D01*
X134030686Y-115791278D01*
X133938599Y-115654496D01*
X133935607Y-115650052D01*
X133935605Y-115650050D01*
X133932627Y-115645626D01*
X133773482Y-115478799D01*
X133588504Y-115341171D01*
X133583753Y-115338755D01*
X133583749Y-115338753D01*
X133387740Y-115239097D01*
X133387739Y-115239097D01*
X133382982Y-115236678D01*
X133242033Y-115192912D01*
X133167895Y-115169891D01*
X133167889Y-115169890D01*
X133162792Y-115168307D01*
X133057798Y-115154391D01*
X132939515Y-115138714D01*
X132939510Y-115138714D01*
X132934230Y-115138014D01*
X132928900Y-115138214D01*
X132928899Y-115138214D01*
X132835320Y-115141727D01*
X132703831Y-115146663D01*
X132659246Y-115156018D01*
X132483411Y-115192912D01*
X132483408Y-115192913D01*
X132478184Y-115194009D01*
X132263740Y-115278697D01*
X132066631Y-115398306D01*
X132062601Y-115401803D01*
X131936406Y-115511309D01*
X131892492Y-115549415D01*
X131889109Y-115553541D01*
X131889105Y-115553545D01*
X131854545Y-115595695D01*
X131746304Y-115727705D01*
X131743667Y-115732338D01*
X131743666Y-115732339D01*
X131710116Y-115791278D01*
X131659033Y-115840584D01*
X131589402Y-115854445D01*
X131523332Y-115828461D01*
X131496094Y-115799312D01*
X131490686Y-115791278D01*
X131398599Y-115654496D01*
X131395607Y-115650052D01*
X131395605Y-115650050D01*
X131392627Y-115645626D01*
X131233482Y-115478799D01*
X131048504Y-115341171D01*
X131043753Y-115338755D01*
X131043749Y-115338753D01*
X130847740Y-115239097D01*
X130847739Y-115239097D01*
X130842982Y-115236678D01*
X130702033Y-115192912D01*
X130627895Y-115169891D01*
X130627889Y-115169890D01*
X130622792Y-115168307D01*
X130517798Y-115154391D01*
X130399515Y-115138714D01*
X130399510Y-115138714D01*
X130394230Y-115138014D01*
X130388900Y-115138214D01*
X130388899Y-115138214D01*
X130295320Y-115141727D01*
X130163831Y-115146663D01*
X130119246Y-115156018D01*
X129943411Y-115192912D01*
X129943408Y-115192913D01*
X129938184Y-115194009D01*
X129723740Y-115278697D01*
X129526631Y-115398306D01*
X129522601Y-115401803D01*
X129396406Y-115511309D01*
X129352492Y-115549415D01*
X129349109Y-115553541D01*
X129349105Y-115553545D01*
X129314545Y-115595695D01*
X129206304Y-115727705D01*
X129203667Y-115732338D01*
X129203666Y-115732339D01*
X129170116Y-115791278D01*
X129119033Y-115840584D01*
X129049402Y-115854445D01*
X128983332Y-115828461D01*
X128956094Y-115799312D01*
X128950686Y-115791278D01*
X128858599Y-115654496D01*
X128855607Y-115650052D01*
X128855605Y-115650050D01*
X128852627Y-115645626D01*
X128693482Y-115478799D01*
X128508504Y-115341171D01*
X128503753Y-115338755D01*
X128503749Y-115338753D01*
X128307740Y-115239097D01*
X128307739Y-115239097D01*
X128302982Y-115236678D01*
X128162033Y-115192912D01*
X128087895Y-115169891D01*
X128087889Y-115169890D01*
X128082792Y-115168307D01*
X127977798Y-115154391D01*
X127859515Y-115138714D01*
X127859510Y-115138714D01*
X127854230Y-115138014D01*
X127848900Y-115138214D01*
X127848899Y-115138214D01*
X127755320Y-115141727D01*
X127623831Y-115146663D01*
X127579246Y-115156018D01*
X127403411Y-115192912D01*
X127403408Y-115192913D01*
X127398184Y-115194009D01*
X127183740Y-115278697D01*
X126986631Y-115398306D01*
X126982601Y-115401803D01*
X126856406Y-115511309D01*
X126812492Y-115549415D01*
X126807339Y-115555700D01*
X126806364Y-115556365D01*
X126805390Y-115557366D01*
X126805186Y-115557168D01*
X126748681Y-115595695D01*
X126677710Y-115597628D01*
X126616961Y-115560885D01*
X126589008Y-115511309D01*
X126569634Y-115445329D01*
X126567096Y-115436684D01*
X126505713Y-115341171D01*
X126492949Y-115321309D01*
X126492947Y-115321306D01*
X126488077Y-115313729D01*
X126445384Y-115276735D01*
X126384431Y-115223918D01*
X126384428Y-115223916D01*
X126377619Y-115218016D01*
X126295175Y-115180365D01*
X126252864Y-115161042D01*
X126252863Y-115161042D01*
X126244670Y-115157300D01*
X126235755Y-115156018D01*
X126235754Y-115156018D01*
X126104448Y-115137139D01*
X126104441Y-115137138D01*
X126100000Y-115136500D01*
X124400000Y-115136500D01*
X124326921Y-115141727D01*
X124273884Y-115157300D01*
X124195330Y-115180365D01*
X124195328Y-115180366D01*
X124186684Y-115182904D01*
X124166350Y-115195972D01*
X124071309Y-115257051D01*
X124071306Y-115257053D01*
X124063729Y-115261923D01*
X124057828Y-115268733D01*
X123973918Y-115365569D01*
X123973916Y-115365572D01*
X123968016Y-115372381D01*
X123907300Y-115505330D01*
X123906018Y-115514245D01*
X123906018Y-115514246D01*
X123887139Y-115645552D01*
X123887138Y-115645559D01*
X123886500Y-115650000D01*
X123886500Y-117350000D01*
X123891727Y-117423079D01*
X123932904Y-117563316D01*
X123937775Y-117570895D01*
X124007051Y-117678691D01*
X124007053Y-117678694D01*
X124011923Y-117686271D01*
X124018733Y-117692172D01*
X124115569Y-117776082D01*
X124115572Y-117776084D01*
X124122381Y-117781984D01*
X124130579Y-117785728D01*
X124242998Y-117837068D01*
X124255330Y-117842700D01*
X124264245Y-117843982D01*
X124264246Y-117843982D01*
X124395552Y-117862861D01*
X124395559Y-117862862D01*
X124400000Y-117863500D01*
X126100000Y-117863500D01*
X126173079Y-117858273D01*
X126251165Y-117835345D01*
X126304670Y-117819635D01*
X126304672Y-117819634D01*
X126313316Y-117817096D01*
X126379721Y-117774420D01*
X126428691Y-117742949D01*
X126428694Y-117742947D01*
X126436271Y-117738077D01*
X126461086Y-117709439D01*
X126526082Y-117634431D01*
X126526084Y-117634428D01*
X126531984Y-117627619D01*
X126592700Y-117494670D01*
X126593320Y-117490360D01*
X126630432Y-117432610D01*
X126695012Y-117403117D01*
X126765286Y-117413220D01*
X126797335Y-117434270D01*
X126965629Y-117586069D01*
X127160406Y-117709439D01*
X127373184Y-117798228D01*
X127378387Y-117799425D01*
X127378392Y-117799426D01*
X127592678Y-117848701D01*
X127592683Y-117848702D01*
X127597881Y-117849897D01*
X127603209Y-117850200D01*
X127603212Y-117850200D01*
X127753877Y-117858755D01*
X127828071Y-117862968D01*
X127833378Y-117862368D01*
X127833380Y-117862368D01*
X128007354Y-117842700D01*
X128057173Y-117837068D01*
X128062288Y-117835587D01*
X128062292Y-117835586D01*
X128191298Y-117798228D01*
X128278635Y-117772937D01*
X128486125Y-117672409D01*
X128490463Y-117669309D01*
X128490468Y-117669306D01*
X128669370Y-117541459D01*
X128673711Y-117538357D01*
X128836030Y-117374617D01*
X128839090Y-117370255D01*
X128839095Y-117370249D01*
X128957634Y-117201271D01*
X129013130Y-117156990D01*
X129083755Y-117149743D01*
X129147088Y-117181829D01*
X129171461Y-117213410D01*
X129191685Y-117250580D01*
X129334424Y-117431644D01*
X129338389Y-117435220D01*
X129501659Y-117582489D01*
X129501665Y-117582494D01*
X129505629Y-117586069D01*
X129700406Y-117709439D01*
X129913184Y-117798228D01*
X129918387Y-117799425D01*
X129918392Y-117799426D01*
X130132678Y-117848701D01*
X130132683Y-117848702D01*
X130137881Y-117849897D01*
X130143209Y-117850200D01*
X130143212Y-117850200D01*
X130293877Y-117858755D01*
X130368071Y-117862968D01*
X130373378Y-117862368D01*
X130373380Y-117862368D01*
X130547354Y-117842700D01*
X130597173Y-117837068D01*
X130602288Y-117835587D01*
X130602292Y-117835586D01*
X130731298Y-117798228D01*
X130818635Y-117772937D01*
X131026125Y-117672409D01*
X131030463Y-117669309D01*
X131030468Y-117669306D01*
X131209370Y-117541459D01*
X131213711Y-117538357D01*
X131376030Y-117374617D01*
X131379090Y-117370255D01*
X131379095Y-117370249D01*
X131497634Y-117201271D01*
X131553130Y-117156990D01*
X131623755Y-117149743D01*
X131687088Y-117181829D01*
X131711461Y-117213410D01*
X131731685Y-117250580D01*
X131874424Y-117431644D01*
X131878389Y-117435220D01*
X132041659Y-117582489D01*
X132041665Y-117582494D01*
X132045629Y-117586069D01*
X132240406Y-117709439D01*
X132453184Y-117798228D01*
X132458387Y-117799425D01*
X132458392Y-117799426D01*
X132672678Y-117848701D01*
X132672683Y-117848702D01*
X132677881Y-117849897D01*
X132683209Y-117850200D01*
X132683212Y-117850200D01*
X132833877Y-117858755D01*
X132908071Y-117862968D01*
X132913378Y-117862368D01*
X132913380Y-117862368D01*
X133087354Y-117842700D01*
X133137173Y-117837068D01*
X133142288Y-117835587D01*
X133142292Y-117835586D01*
X133271298Y-117798228D01*
X133358635Y-117772937D01*
X133566125Y-117672409D01*
X133570463Y-117669309D01*
X133570468Y-117669306D01*
X133749370Y-117541459D01*
X133753711Y-117538357D01*
X133916030Y-117374617D01*
X133919090Y-117370255D01*
X133919095Y-117370249D01*
X134037634Y-117201271D01*
X134093130Y-117156990D01*
X134163755Y-117149743D01*
X134227088Y-117181829D01*
X134251461Y-117213410D01*
X134271685Y-117250580D01*
X134414424Y-117431644D01*
X134418389Y-117435220D01*
X134581659Y-117582489D01*
X134581665Y-117582494D01*
X134585629Y-117586069D01*
X134780406Y-117709439D01*
X134993184Y-117798228D01*
X134998387Y-117799425D01*
X134998392Y-117799426D01*
X135212678Y-117848701D01*
X135212683Y-117848702D01*
X135217881Y-117849897D01*
X135223209Y-117850200D01*
X135223212Y-117850200D01*
X135373877Y-117858755D01*
X135448071Y-117862968D01*
X135453378Y-117862368D01*
X135453380Y-117862368D01*
X135627354Y-117842700D01*
X135677173Y-117837068D01*
X135682288Y-117835587D01*
X135682292Y-117835586D01*
X135811298Y-117798228D01*
X135898635Y-117772937D01*
X136106125Y-117672409D01*
X136110463Y-117669309D01*
X136110468Y-117669306D01*
X136289370Y-117541459D01*
X136293711Y-117538357D01*
X136456030Y-117374617D01*
X136459090Y-117370255D01*
X136459095Y-117370249D01*
X136577634Y-117201271D01*
X136633130Y-117156990D01*
X136703755Y-117149743D01*
X136767088Y-117181829D01*
X136791461Y-117213410D01*
X136811685Y-117250580D01*
X136954424Y-117431644D01*
X136958389Y-117435220D01*
X137121659Y-117582489D01*
X137121665Y-117582494D01*
X137125629Y-117586069D01*
X137320406Y-117709439D01*
X137533184Y-117798228D01*
X137538387Y-117799425D01*
X137538392Y-117799426D01*
X137752678Y-117848701D01*
X137752683Y-117848702D01*
X137757881Y-117849897D01*
X137763209Y-117850200D01*
X137763212Y-117850200D01*
X137913877Y-117858755D01*
X137988071Y-117862968D01*
X137993378Y-117862368D01*
X137993380Y-117862368D01*
X138167354Y-117842700D01*
X138217173Y-117837068D01*
X138222288Y-117835587D01*
X138222292Y-117835586D01*
X138351298Y-117798228D01*
X138438635Y-117772937D01*
X138646125Y-117672409D01*
X138650463Y-117669309D01*
X138650468Y-117669306D01*
X138829370Y-117541459D01*
X138833711Y-117538357D01*
X138996030Y-117374617D01*
X138999090Y-117370255D01*
X138999095Y-117370249D01*
X139117634Y-117201271D01*
X139173130Y-117156990D01*
X139243755Y-117149743D01*
X139307088Y-117181829D01*
X139331461Y-117213410D01*
X139351685Y-117250580D01*
X139494424Y-117431644D01*
X139498389Y-117435220D01*
X139661659Y-117582489D01*
X139661665Y-117582494D01*
X139665629Y-117586069D01*
X139860406Y-117709439D01*
X140073184Y-117798228D01*
X140078387Y-117799425D01*
X140078392Y-117799426D01*
X140292678Y-117848701D01*
X140292683Y-117848702D01*
X140297881Y-117849897D01*
X140303209Y-117850200D01*
X140303212Y-117850200D01*
X140453877Y-117858755D01*
X140528071Y-117862968D01*
X140533378Y-117862368D01*
X140533380Y-117862368D01*
X140707354Y-117842700D01*
X140757173Y-117837068D01*
X140762288Y-117835587D01*
X140762292Y-117835586D01*
X140891298Y-117798228D01*
X140978635Y-117772937D01*
X141186125Y-117672409D01*
X141190463Y-117669309D01*
X141190468Y-117669306D01*
X141369370Y-117541459D01*
X141373711Y-117538357D01*
X141536030Y-117374617D01*
X141539090Y-117370255D01*
X141539095Y-117370249D01*
X141657634Y-117201271D01*
X141713130Y-117156990D01*
X141783755Y-117149743D01*
X141847088Y-117181829D01*
X141871461Y-117213410D01*
X141891685Y-117250580D01*
X142034424Y-117431644D01*
X142038389Y-117435220D01*
X142201659Y-117582489D01*
X142201665Y-117582494D01*
X142205629Y-117586069D01*
X142400406Y-117709439D01*
X142613184Y-117798228D01*
X142618387Y-117799425D01*
X142618392Y-117799426D01*
X142832678Y-117848701D01*
X142832683Y-117848702D01*
X142837881Y-117849897D01*
X142843209Y-117850200D01*
X142843212Y-117850200D01*
X142993877Y-117858755D01*
X143068071Y-117862968D01*
X143073378Y-117862368D01*
X143073380Y-117862368D01*
X143247354Y-117842700D01*
X143297173Y-117837068D01*
X143302288Y-117835587D01*
X143302292Y-117835586D01*
X143431298Y-117798228D01*
X143518635Y-117772937D01*
X143726125Y-117672409D01*
X143730463Y-117669309D01*
X143730468Y-117669306D01*
X143909370Y-117541459D01*
X143913711Y-117538357D01*
X144076030Y-117374617D01*
X144079090Y-117370255D01*
X144079095Y-117370249D01*
X144197634Y-117201271D01*
X144253130Y-117156990D01*
X144323755Y-117149743D01*
X144387088Y-117181829D01*
X144411461Y-117213410D01*
X144431685Y-117250580D01*
X144574424Y-117431644D01*
X144578389Y-117435220D01*
X144741659Y-117582489D01*
X144741665Y-117582494D01*
X144745629Y-117586069D01*
X144940406Y-117709439D01*
X145153184Y-117798228D01*
X145158387Y-117799425D01*
X145158392Y-117799426D01*
X145372678Y-117848701D01*
X145372683Y-117848702D01*
X145377881Y-117849897D01*
X145383209Y-117850200D01*
X145383212Y-117850200D01*
X145533877Y-117858755D01*
X145608071Y-117862968D01*
X145613378Y-117862368D01*
X145613380Y-117862368D01*
X145787354Y-117842700D01*
X145837173Y-117837068D01*
X145842288Y-117835587D01*
X145842292Y-117835586D01*
X145971298Y-117798228D01*
X146058635Y-117772937D01*
X146266125Y-117672409D01*
X146270463Y-117669309D01*
X146270468Y-117669306D01*
X146449370Y-117541459D01*
X146453711Y-117538357D01*
X146616030Y-117374617D01*
X146706330Y-117245895D01*
X146745375Y-117190236D01*
X146745376Y-117190234D01*
X146748439Y-117185868D01*
X146847153Y-116977508D01*
X146909349Y-116755494D01*
X146933249Y-116526176D01*
X146933500Y-116500000D01*
X146932555Y-116488858D01*
X146914458Y-116275576D01*
X146914457Y-116275572D01*
X146914007Y-116270265D01*
X146902384Y-116225481D01*
X146857426Y-116052269D01*
X146856084Y-116047098D01*
X146761388Y-115836882D01*
X146750338Y-115820468D01*
X146730686Y-115791278D01*
X146632627Y-115645626D01*
X146473482Y-115478799D01*
X146288504Y-115341171D01*
X146283753Y-115338755D01*
X146283749Y-115338753D01*
X146087740Y-115239097D01*
X146087739Y-115239097D01*
X146082982Y-115236678D01*
X145942033Y-115192912D01*
X145867895Y-115169891D01*
X145867889Y-115169890D01*
X145862792Y-115168307D01*
X145757798Y-115154391D01*
X145639515Y-115138714D01*
X145639510Y-115138714D01*
X145634230Y-115138014D01*
X145628900Y-115138214D01*
X145628899Y-115138214D01*
X145535320Y-115141727D01*
X145403831Y-115146663D01*
X145359246Y-115156018D01*
X145183411Y-115192912D01*
X145183408Y-115192913D01*
X145178184Y-115194009D01*
X144963740Y-115278697D01*
X144766631Y-115398306D01*
X144762601Y-115401803D01*
X144636406Y-115511309D01*
X144592492Y-115549415D01*
X144589109Y-115553541D01*
X144589105Y-115553545D01*
X144554545Y-115595695D01*
X144446304Y-115727705D01*
X144443667Y-115732338D01*
X144443666Y-115732339D01*
X144410116Y-115791278D01*
X144359033Y-115840584D01*
X144289402Y-115854445D01*
X144223332Y-115828461D01*
X144196094Y-115799312D01*
X144190686Y-115791278D01*
X144098599Y-115654496D01*
X144095607Y-115650052D01*
X144095605Y-115650050D01*
X144092627Y-115645626D01*
X143933482Y-115478799D01*
X143748504Y-115341171D01*
X143743753Y-115338755D01*
X143743749Y-115338753D01*
X143547740Y-115239097D01*
X143547739Y-115239097D01*
X143542982Y-115236678D01*
X143402033Y-115192912D01*
X143327895Y-115169891D01*
X143327889Y-115169890D01*
X143322792Y-115168307D01*
X143217798Y-115154391D01*
X143099515Y-115138714D01*
X143099510Y-115138714D01*
X143094230Y-115138014D01*
X143088900Y-115138214D01*
X143088899Y-115138214D01*
X142995320Y-115141727D01*
X142863831Y-115146663D01*
X142819246Y-115156018D01*
X142643411Y-115192912D01*
X142643408Y-115192913D01*
X142638184Y-115194009D01*
X142423740Y-115278697D01*
X142226631Y-115398306D01*
X142222601Y-115401803D01*
X142096406Y-115511309D01*
X142052492Y-115549415D01*
X142049109Y-115553541D01*
X142049105Y-115553545D01*
X142014545Y-115595695D01*
X141906304Y-115727705D01*
X141903667Y-115732338D01*
X141903666Y-115732339D01*
X141870116Y-115791278D01*
X141819033Y-115840584D01*
X141749402Y-115854445D01*
X141683332Y-115828461D01*
X141656094Y-115799312D01*
X141650686Y-115791278D01*
X141558599Y-115654496D01*
X141555607Y-115650052D01*
X141555605Y-115650050D01*
X141552627Y-115645626D01*
X141393482Y-115478799D01*
X141208504Y-115341171D01*
X141203753Y-115338755D01*
X141203749Y-115338753D01*
X141007740Y-115239097D01*
X141007739Y-115239097D01*
X141002982Y-115236678D01*
X140862033Y-115192912D01*
X140787895Y-115169891D01*
X140787889Y-115169890D01*
X140782792Y-115168307D01*
X140677798Y-115154391D01*
X140559515Y-115138714D01*
X140559510Y-115138714D01*
X140554230Y-115138014D01*
X140548900Y-115138214D01*
X140548899Y-115138214D01*
X140455320Y-115141727D01*
X140323831Y-115146663D01*
X140279246Y-115156018D01*
X140103411Y-115192912D01*
X140103408Y-115192913D01*
X140098184Y-115194009D01*
X139883740Y-115278697D01*
X139686631Y-115398306D01*
X139682601Y-115401803D01*
X139556406Y-115511309D01*
X139512492Y-115549415D01*
X139509109Y-115553541D01*
X139509105Y-115553545D01*
X139474545Y-115595695D01*
X139366304Y-115727705D01*
X139363667Y-115732338D01*
X139363666Y-115732339D01*
X139330116Y-115791278D01*
X139279033Y-115840584D01*
X139209402Y-115854445D01*
X139143332Y-115828461D01*
X139116094Y-115799312D01*
X139110686Y-115791278D01*
X139018599Y-115654496D01*
X139015607Y-115650052D01*
X139015605Y-115650050D01*
X139012627Y-115645626D01*
X138853482Y-115478799D01*
X138668504Y-115341171D01*
X138663747Y-115338752D01*
X138663743Y-115338750D01*
X138652394Y-115332980D01*
X138600737Y-115284276D01*
X138583500Y-115220664D01*
X138583500Y-113778384D01*
X138584014Y-113767480D01*
X138585666Y-113760089D01*
X138583562Y-113693134D01*
X138583500Y-113689177D01*
X138583500Y-113660422D01*
X138582961Y-113656155D01*
X138582027Y-113644305D01*
X138581609Y-113630974D01*
X138580639Y-113600117D01*
X138574987Y-113580661D01*
X138570978Y-113561302D01*
X138569434Y-113549079D01*
X138569434Y-113549078D01*
X138568440Y-113541212D01*
X138563230Y-113528054D01*
X138552168Y-113500111D01*
X138548323Y-113488882D01*
X138538199Y-113454035D01*
X138538198Y-113454034D01*
X138535987Y-113446422D01*
X138525674Y-113428983D01*
X138516978Y-113411231D01*
X138512442Y-113399775D01*
X138509522Y-113392400D01*
X138483533Y-113356629D01*
X138477016Y-113346708D01*
X138454514Y-113308659D01*
X138454145Y-113308241D01*
X138440062Y-113294158D01*
X138427228Y-113279133D01*
X138415446Y-113262917D01*
X138381664Y-113234970D01*
X138372885Y-113226981D01*
X137503391Y-112357487D01*
X137496031Y-112349399D01*
X137491973Y-112343005D01*
X137443121Y-112297130D01*
X137440280Y-112294376D01*
X137419966Y-112274062D01*
X137416555Y-112271417D01*
X137407533Y-112263711D01*
X137381077Y-112238867D01*
X137375301Y-112233443D01*
X137368357Y-112229626D01*
X137368355Y-112229624D01*
X137357547Y-112223682D01*
X137341023Y-112212828D01*
X137331286Y-112205275D01*
X137331285Y-112205275D01*
X137325023Y-112200417D01*
X137284447Y-112182858D01*
X137273790Y-112177637D01*
X137261490Y-112170875D01*
X137235048Y-112156338D01*
X137227365Y-112154366D01*
X137227364Y-112154365D01*
X137215432Y-112151301D01*
X137196728Y-112144897D01*
X137185415Y-112140001D01*
X137185408Y-112139999D01*
X137178136Y-112136852D01*
X137170312Y-112135613D01*
X137170309Y-112135612D01*
X137134465Y-112129935D01*
X137122844Y-112127528D01*
X137085782Y-112118013D01*
X137085781Y-112118013D01*
X137080025Y-112116535D01*
X137079469Y-112116500D01*
X137059548Y-112116500D01*
X137039838Y-112114949D01*
X137027886Y-112113056D01*
X137027885Y-112113056D01*
X137020056Y-112111816D01*
X137012164Y-112112562D01*
X136976418Y-112115941D01*
X136964560Y-112116500D01*
X123564596Y-112116500D01*
X123496475Y-112096498D01*
X123475501Y-112079596D01*
X123123772Y-111727868D01*
X144136616Y-111727868D01*
X144153166Y-112014892D01*
X144153991Y-112019097D01*
X144153992Y-112019105D01*
X144185095Y-112177637D01*
X144208516Y-112297014D01*
X144301642Y-112569014D01*
X144430822Y-112825859D01*
X144593664Y-113062796D01*
X144787155Y-113275440D01*
X145007716Y-113459857D01*
X145011357Y-113462141D01*
X145247624Y-113610352D01*
X145247628Y-113610354D01*
X145251264Y-113612635D01*
X145255174Y-113614400D01*
X145255175Y-113614401D01*
X145270851Y-113621479D01*
X145513293Y-113730945D01*
X145517412Y-113732165D01*
X145784841Y-113811382D01*
X145784846Y-113811383D01*
X145788954Y-113812600D01*
X145793188Y-113813248D01*
X145793193Y-113813249D01*
X146046037Y-113851940D01*
X146073147Y-113856088D01*
X146219498Y-113858387D01*
X146356321Y-113860537D01*
X146356327Y-113860537D01*
X146360612Y-113860604D01*
X146364864Y-113860089D01*
X146364872Y-113860089D01*
X146586529Y-113833265D01*
X146646030Y-113826064D01*
X146650179Y-113824976D01*
X146650182Y-113824975D01*
X146919970Y-113754198D01*
X146924121Y-113753109D01*
X147189736Y-113643087D01*
X147204235Y-113634615D01*
X147434255Y-113500202D01*
X147434257Y-113500200D01*
X147437963Y-113498035D01*
X147664208Y-113320637D01*
X147670844Y-113313790D01*
X147861300Y-113117253D01*
X147864283Y-113114175D01*
X147866816Y-113110727D01*
X147866820Y-113110722D01*
X148031949Y-112885925D01*
X148034487Y-112882470D01*
X148065224Y-112825859D01*
X148169621Y-112633585D01*
X148169622Y-112633583D01*
X148171671Y-112629809D01*
X148273295Y-112360869D01*
X148305830Y-112218813D01*
X148336521Y-112084808D01*
X148336522Y-112084804D01*
X148337479Y-112080624D01*
X148338962Y-112064015D01*
X148362816Y-111796728D01*
X148362816Y-111796726D01*
X148363036Y-111794262D01*
X148363500Y-111750000D01*
X148358743Y-111680221D01*
X148344238Y-111467442D01*
X148344237Y-111467436D01*
X148343946Y-111463165D01*
X148339409Y-111441254D01*
X148302036Y-111260790D01*
X148285644Y-111181638D01*
X148189674Y-110910628D01*
X148057812Y-110655150D01*
X147892498Y-110419931D01*
X147889573Y-110416783D01*
X147699711Y-110212468D01*
X147699708Y-110212466D01*
X147696790Y-110209325D01*
X147693474Y-110206611D01*
X147693471Y-110206608D01*
X147477629Y-110029942D01*
X147477622Y-110029937D01*
X147474311Y-110027227D01*
X147229176Y-109877009D01*
X147225240Y-109875281D01*
X146969851Y-109763172D01*
X146969847Y-109763171D01*
X146965923Y-109761448D01*
X146689421Y-109682685D01*
X146478794Y-109652708D01*
X146409041Y-109642781D01*
X146409039Y-109642781D01*
X146404789Y-109642176D01*
X146253976Y-109641387D01*
X146121579Y-109640693D01*
X146121573Y-109640693D01*
X146117292Y-109640671D01*
X146113048Y-109641230D01*
X146113044Y-109641230D01*
X145987864Y-109657710D01*
X145832251Y-109678197D01*
X145828111Y-109679330D01*
X145828109Y-109679330D01*
X145729886Y-109706201D01*
X145554940Y-109754061D01*
X145533580Y-109763172D01*
X145294433Y-109865176D01*
X145294426Y-109865180D01*
X145290491Y-109866858D01*
X145286810Y-109869061D01*
X145047479Y-110012297D01*
X145047475Y-110012300D01*
X145043797Y-110014501D01*
X145040454Y-110017179D01*
X145040450Y-110017182D01*
X144945356Y-110093367D01*
X144819423Y-110194259D01*
X144816479Y-110197361D01*
X144816475Y-110197365D01*
X144709519Y-110310073D01*
X144621520Y-110402804D01*
X144453752Y-110636279D01*
X144319222Y-110890362D01*
X144246222Y-111089842D01*
X144230246Y-111133500D01*
X144220419Y-111160352D01*
X144159173Y-111441254D01*
X144136616Y-111727868D01*
X123123772Y-111727868D01*
X122920405Y-111524501D01*
X122886380Y-111462188D01*
X122883500Y-111435405D01*
X122883500Y-88452519D01*
X122903502Y-88384398D01*
X122915864Y-88368209D01*
X122984618Y-88291850D01*
X122984619Y-88291849D01*
X122989037Y-88286942D01*
X123051536Y-88178691D01*
X123081220Y-88127277D01*
X123081221Y-88127276D01*
X123084524Y-88121554D01*
X123130167Y-87981079D01*
X123170240Y-87922473D01*
X123235637Y-87894836D01*
X123305594Y-87906943D01*
X123357900Y-87954949D01*
X123369833Y-87981079D01*
X123415476Y-88121554D01*
X123418779Y-88127276D01*
X123418780Y-88127277D01*
X123448464Y-88178691D01*
X123510963Y-88286942D01*
X123515381Y-88291849D01*
X123515382Y-88291850D01*
X123584136Y-88368209D01*
X123614854Y-88432216D01*
X123616500Y-88452519D01*
X123616500Y-109671616D01*
X123615986Y-109682520D01*
X123614334Y-109689911D01*
X123614583Y-109697837D01*
X123614583Y-109697838D01*
X123616438Y-109756866D01*
X123616500Y-109760823D01*
X123616500Y-109789578D01*
X123616996Y-109793503D01*
X123616996Y-109793504D01*
X123617039Y-109793843D01*
X123617972Y-109805687D01*
X123619361Y-109849883D01*
X123622896Y-109862049D01*
X123625012Y-109869333D01*
X123629022Y-109888695D01*
X123631560Y-109908788D01*
X123634476Y-109916153D01*
X123634477Y-109916157D01*
X123647837Y-109949901D01*
X123651681Y-109961128D01*
X123664014Y-110003578D01*
X123668052Y-110010406D01*
X123674323Y-110021011D01*
X123683019Y-110038762D01*
X123687558Y-110050226D01*
X123690478Y-110057600D01*
X123695139Y-110064015D01*
X123716465Y-110093367D01*
X123722983Y-110103290D01*
X123745486Y-110141341D01*
X123745855Y-110141759D01*
X123759938Y-110155842D01*
X123772772Y-110170867D01*
X123784554Y-110187083D01*
X123808156Y-110206608D01*
X123818335Y-110215029D01*
X123827115Y-110223019D01*
X124496609Y-110892513D01*
X124503969Y-110900601D01*
X124508027Y-110906995D01*
X124513804Y-110912420D01*
X124556878Y-110952869D01*
X124559720Y-110955624D01*
X124580034Y-110975938D01*
X124583445Y-110978583D01*
X124592465Y-110986287D01*
X124624699Y-111016557D01*
X124631643Y-111020374D01*
X124631645Y-111020376D01*
X124642453Y-111026318D01*
X124658977Y-111037172D01*
X124674977Y-111049583D01*
X124682248Y-111052730D01*
X124682249Y-111052730D01*
X124715551Y-111067141D01*
X124726207Y-111072362D01*
X124764952Y-111093662D01*
X124772635Y-111095634D01*
X124772636Y-111095635D01*
X124784568Y-111098699D01*
X124803272Y-111105103D01*
X124814585Y-111109999D01*
X124814592Y-111110001D01*
X124821864Y-111113148D01*
X124829688Y-111114387D01*
X124829691Y-111114388D01*
X124865535Y-111120065D01*
X124877156Y-111122472D01*
X124914218Y-111131987D01*
X124919975Y-111133465D01*
X124920531Y-111133500D01*
X124940452Y-111133500D01*
X124960162Y-111135051D01*
X124972114Y-111136944D01*
X124972115Y-111136944D01*
X124979944Y-111138184D01*
X124987836Y-111137438D01*
X125023582Y-111134059D01*
X125035440Y-111133500D01*
X132041806Y-111133500D01*
X132109927Y-111153502D01*
X132129151Y-111169842D01*
X132129425Y-111169538D01*
X132134327Y-111173952D01*
X132138749Y-111178863D01*
X132144091Y-111182744D01*
X132144093Y-111182746D01*
X132287908Y-111287233D01*
X132293250Y-111291114D01*
X132299278Y-111293798D01*
X132299280Y-111293799D01*
X132461682Y-111366105D01*
X132467713Y-111368790D01*
X132561113Y-111388643D01*
X132648056Y-111407124D01*
X132648061Y-111407124D01*
X132654513Y-111408496D01*
X132845487Y-111408496D01*
X132851939Y-111407124D01*
X132851944Y-111407124D01*
X132938887Y-111388643D01*
X133032287Y-111368790D01*
X133038318Y-111366105D01*
X133200720Y-111293799D01*
X133200722Y-111293798D01*
X133206750Y-111291114D01*
X133212092Y-111287233D01*
X133355907Y-111182746D01*
X133355909Y-111182744D01*
X133361251Y-111178863D01*
X133384086Y-111153502D01*
X133484618Y-111041850D01*
X133484619Y-111041849D01*
X133489037Y-111036942D01*
X133547311Y-110936008D01*
X133581220Y-110877277D01*
X133581221Y-110877276D01*
X133584524Y-110871554D01*
X133643538Y-110689927D01*
X133646793Y-110658963D01*
X133662810Y-110506565D01*
X133663500Y-110500000D01*
X133655454Y-110423447D01*
X133644228Y-110316637D01*
X133644228Y-110316636D01*
X133643538Y-110310073D01*
X133584524Y-110128446D01*
X133489037Y-109963058D01*
X133477191Y-109949901D01*
X133365673Y-109826048D01*
X133365672Y-109826047D01*
X133361251Y-109821137D01*
X133355909Y-109817256D01*
X133355907Y-109817254D01*
X133212092Y-109712767D01*
X133212091Y-109712766D01*
X133206750Y-109708886D01*
X133200722Y-109706202D01*
X133200720Y-109706201D01*
X133038318Y-109633895D01*
X133038317Y-109633895D01*
X133032287Y-109631210D01*
X132938887Y-109611357D01*
X132851944Y-109592876D01*
X132851939Y-109592876D01*
X132845487Y-109591504D01*
X132654513Y-109591504D01*
X132648061Y-109592876D01*
X132648056Y-109592876D01*
X132561113Y-109611357D01*
X132467713Y-109631210D01*
X132461683Y-109633895D01*
X132461682Y-109633895D01*
X132299280Y-109706201D01*
X132299278Y-109706202D01*
X132293250Y-109708886D01*
X132287909Y-109712766D01*
X132287908Y-109712767D01*
X132144093Y-109817254D01*
X132144091Y-109817256D01*
X132138749Y-109821137D01*
X132134328Y-109826047D01*
X132129425Y-109830462D01*
X132128299Y-109829211D01*
X132075000Y-109862049D01*
X132041806Y-109866500D01*
X125314594Y-109866500D01*
X125246473Y-109846498D01*
X125225499Y-109829595D01*
X124920405Y-109524501D01*
X124886379Y-109462189D01*
X124883500Y-109435406D01*
X124883500Y-95400000D01*
X126386500Y-95400000D01*
X126386500Y-97100000D01*
X126391727Y-97173079D01*
X126432904Y-97313316D01*
X126437775Y-97320895D01*
X126507051Y-97428691D01*
X126507053Y-97428694D01*
X126511923Y-97436271D01*
X126518733Y-97442172D01*
X126615569Y-97526082D01*
X126615572Y-97526084D01*
X126622381Y-97531984D01*
X126630579Y-97535728D01*
X126742998Y-97587068D01*
X126755330Y-97592700D01*
X126764245Y-97593982D01*
X126764246Y-97593982D01*
X126895552Y-97612861D01*
X126895559Y-97612862D01*
X126900000Y-97613500D01*
X128600000Y-97613500D01*
X128673079Y-97608273D01*
X128751165Y-97585345D01*
X128804670Y-97569635D01*
X128804672Y-97569634D01*
X128813316Y-97567096D01*
X128879721Y-97524420D01*
X128928691Y-97492949D01*
X128928694Y-97492947D01*
X128936271Y-97488077D01*
X128961086Y-97459439D01*
X129026082Y-97384431D01*
X129026084Y-97384428D01*
X129031984Y-97377619D01*
X129092700Y-97244670D01*
X129093320Y-97240360D01*
X129130432Y-97182610D01*
X129195012Y-97153117D01*
X129265286Y-97163220D01*
X129297335Y-97184270D01*
X129465629Y-97336069D01*
X129660406Y-97459439D01*
X129873184Y-97548228D01*
X129878387Y-97549425D01*
X129878392Y-97549426D01*
X130092678Y-97598701D01*
X130092683Y-97598702D01*
X130097881Y-97599897D01*
X130103209Y-97600200D01*
X130103212Y-97600200D01*
X130253877Y-97608755D01*
X130328071Y-97612968D01*
X130333378Y-97612368D01*
X130333380Y-97612368D01*
X130507354Y-97592700D01*
X130557173Y-97587068D01*
X130562288Y-97585587D01*
X130562292Y-97585586D01*
X130648900Y-97560506D01*
X130778635Y-97522937D01*
X130986125Y-97422409D01*
X130990463Y-97419309D01*
X130990468Y-97419306D01*
X131169370Y-97291459D01*
X131173711Y-97288357D01*
X131336030Y-97124617D01*
X131339090Y-97120255D01*
X131339095Y-97120249D01*
X131457634Y-96951271D01*
X131513130Y-96906990D01*
X131583755Y-96899743D01*
X131647088Y-96931829D01*
X131671461Y-96963410D01*
X131691685Y-97000580D01*
X131834424Y-97181644D01*
X131838389Y-97185220D01*
X132001659Y-97332489D01*
X132001665Y-97332494D01*
X132005629Y-97336069D01*
X132200406Y-97459439D01*
X132413184Y-97548228D01*
X132418387Y-97549425D01*
X132418392Y-97549426D01*
X132632678Y-97598701D01*
X132632683Y-97598702D01*
X132637881Y-97599897D01*
X132643209Y-97600200D01*
X132643212Y-97600200D01*
X132793877Y-97608755D01*
X132868071Y-97612968D01*
X132873378Y-97612368D01*
X132873380Y-97612368D01*
X133047354Y-97592700D01*
X133097173Y-97587068D01*
X133102288Y-97585587D01*
X133102292Y-97585586D01*
X133188900Y-97560506D01*
X133318635Y-97522937D01*
X133526125Y-97422409D01*
X133530463Y-97419309D01*
X133530468Y-97419306D01*
X133709370Y-97291459D01*
X133713711Y-97288357D01*
X133876030Y-97124617D01*
X133879090Y-97120255D01*
X133879095Y-97120249D01*
X133997634Y-96951271D01*
X134053130Y-96906990D01*
X134123755Y-96899743D01*
X134187088Y-96931829D01*
X134211461Y-96963410D01*
X134231685Y-97000580D01*
X134374424Y-97181644D01*
X134378389Y-97185220D01*
X134541659Y-97332489D01*
X134541665Y-97332494D01*
X134545629Y-97336069D01*
X134740406Y-97459439D01*
X134953184Y-97548228D01*
X134958387Y-97549425D01*
X134958392Y-97549426D01*
X135172678Y-97598701D01*
X135172683Y-97598702D01*
X135177881Y-97599897D01*
X135183209Y-97600200D01*
X135183212Y-97600200D01*
X135333877Y-97608755D01*
X135408071Y-97612968D01*
X135413378Y-97612368D01*
X135413380Y-97612368D01*
X135481932Y-97604618D01*
X135551868Y-97616841D01*
X135604094Y-97664934D01*
X135622028Y-97733628D01*
X135599977Y-97801113D01*
X135585181Y-97818915D01*
X135007487Y-98396609D01*
X134999399Y-98403969D01*
X134993005Y-98408027D01*
X134987580Y-98413804D01*
X134947131Y-98456878D01*
X134944376Y-98459720D01*
X134924062Y-98480034D01*
X134921417Y-98483445D01*
X134913713Y-98492465D01*
X134883443Y-98524699D01*
X134879626Y-98531643D01*
X134879624Y-98531645D01*
X134873682Y-98542453D01*
X134862828Y-98558977D01*
X134850417Y-98574977D01*
X134847270Y-98582248D01*
X134847270Y-98582249D01*
X134832859Y-98615551D01*
X134827638Y-98626207D01*
X134806338Y-98664952D01*
X134804366Y-98672635D01*
X134804365Y-98672636D01*
X134801301Y-98684568D01*
X134794897Y-98703272D01*
X134790001Y-98714585D01*
X134789999Y-98714592D01*
X134786852Y-98721864D01*
X134785613Y-98729688D01*
X134785612Y-98729691D01*
X134779935Y-98765535D01*
X134777528Y-98777156D01*
X134768013Y-98814218D01*
X134766535Y-98819975D01*
X134766500Y-98820531D01*
X134766500Y-98840452D01*
X134764949Y-98860162D01*
X134761816Y-98879944D01*
X134762562Y-98887836D01*
X134765941Y-98923582D01*
X134766500Y-98935440D01*
X134766500Y-109797481D01*
X134746498Y-109865602D01*
X134734136Y-109881791D01*
X134672810Y-109949901D01*
X134660963Y-109963058D01*
X134565476Y-110128446D01*
X134506462Y-110310073D01*
X134505772Y-110316636D01*
X134505772Y-110316637D01*
X134494546Y-110423447D01*
X134486500Y-110500000D01*
X134487190Y-110506565D01*
X134503208Y-110658963D01*
X134506462Y-110689927D01*
X134565476Y-110871554D01*
X134568779Y-110877276D01*
X134568780Y-110877277D01*
X134602689Y-110936008D01*
X134660963Y-111036942D01*
X134665381Y-111041849D01*
X134665382Y-111041850D01*
X134765914Y-111153502D01*
X134788749Y-111178863D01*
X134794091Y-111182744D01*
X134794093Y-111182746D01*
X134937908Y-111287233D01*
X134943250Y-111291114D01*
X134949278Y-111293798D01*
X134949280Y-111293799D01*
X135111682Y-111366105D01*
X135117713Y-111368790D01*
X135211113Y-111388643D01*
X135298056Y-111407124D01*
X135298061Y-111407124D01*
X135304513Y-111408496D01*
X135495487Y-111408496D01*
X135501939Y-111407124D01*
X135501944Y-111407124D01*
X135588887Y-111388643D01*
X135682287Y-111368790D01*
X135688318Y-111366105D01*
X135850720Y-111293799D01*
X135850722Y-111293798D01*
X135856750Y-111291114D01*
X135862092Y-111287233D01*
X136005907Y-111182746D01*
X136005909Y-111182744D01*
X136011251Y-111178863D01*
X136034086Y-111153502D01*
X136134618Y-111041850D01*
X136134619Y-111041849D01*
X136139037Y-111036942D01*
X136197311Y-110936008D01*
X136231220Y-110877277D01*
X136231221Y-110877276D01*
X136234524Y-110871554D01*
X136293538Y-110689927D01*
X136296793Y-110658963D01*
X136312810Y-110506565D01*
X136313500Y-110500000D01*
X136305454Y-110423447D01*
X136294228Y-110316637D01*
X136294228Y-110316636D01*
X136293538Y-110310073D01*
X136234524Y-110128446D01*
X136139037Y-109963058D01*
X136127191Y-109949901D01*
X136065864Y-109881791D01*
X136035146Y-109817784D01*
X136033500Y-109797481D01*
X136033500Y-99214594D01*
X136053502Y-99146473D01*
X136070405Y-99125499D01*
X137092513Y-98103391D01*
X137100601Y-98096031D01*
X137106995Y-98091973D01*
X137152870Y-98043121D01*
X137155624Y-98040280D01*
X137175938Y-98019966D01*
X137178583Y-98016555D01*
X137186289Y-98007533D01*
X137211133Y-97981077D01*
X137216557Y-97975301D01*
X137220376Y-97968355D01*
X137226318Y-97957547D01*
X137237172Y-97941023D01*
X137244723Y-97931289D01*
X137244724Y-97931287D01*
X137249583Y-97925023D01*
X137267146Y-97884439D01*
X137272353Y-97873810D01*
X137293662Y-97835048D01*
X137298701Y-97815422D01*
X137305102Y-97796728D01*
X137309999Y-97785412D01*
X137313148Y-97778135D01*
X137320064Y-97734469D01*
X137322471Y-97722844D01*
X137331988Y-97685777D01*
X137333465Y-97680025D01*
X137333500Y-97679469D01*
X137333500Y-97669274D01*
X137353502Y-97601153D01*
X137407158Y-97554660D01*
X137477432Y-97544556D01*
X137492985Y-97548145D01*
X137493184Y-97548228D01*
X137554054Y-97562225D01*
X137712678Y-97598701D01*
X137712683Y-97598702D01*
X137717881Y-97599897D01*
X137723209Y-97600200D01*
X137723212Y-97600200D01*
X137873877Y-97608755D01*
X137948071Y-97612968D01*
X137953378Y-97612368D01*
X137953380Y-97612368D01*
X138127354Y-97592700D01*
X138177173Y-97587068D01*
X138182288Y-97585587D01*
X138182292Y-97585586D01*
X138268900Y-97560506D01*
X138398635Y-97522937D01*
X138606125Y-97422409D01*
X138610463Y-97419309D01*
X138610468Y-97419306D01*
X138789370Y-97291459D01*
X138793711Y-97288357D01*
X138956030Y-97124617D01*
X138959090Y-97120255D01*
X138959095Y-97120249D01*
X139077634Y-96951271D01*
X139133130Y-96906990D01*
X139203755Y-96899743D01*
X139267088Y-96931829D01*
X139291461Y-96963410D01*
X139311685Y-97000580D01*
X139454424Y-97181644D01*
X139458389Y-97185220D01*
X139621659Y-97332489D01*
X139621665Y-97332494D01*
X139625629Y-97336069D01*
X139820406Y-97459439D01*
X140033184Y-97548228D01*
X140038387Y-97549425D01*
X140038392Y-97549426D01*
X140252678Y-97598701D01*
X140252683Y-97598702D01*
X140257881Y-97599897D01*
X140263209Y-97600200D01*
X140263212Y-97600200D01*
X140413877Y-97608755D01*
X140488071Y-97612968D01*
X140493378Y-97612368D01*
X140493380Y-97612368D01*
X140667354Y-97592700D01*
X140717173Y-97587068D01*
X140722288Y-97585587D01*
X140722292Y-97585586D01*
X140808900Y-97560506D01*
X140938635Y-97522937D01*
X141146125Y-97422409D01*
X141150463Y-97419309D01*
X141150468Y-97419306D01*
X141329370Y-97291459D01*
X141333711Y-97288357D01*
X141496030Y-97124617D01*
X141586330Y-96995895D01*
X141625375Y-96940236D01*
X141625376Y-96940234D01*
X141628439Y-96935868D01*
X141727153Y-96727508D01*
X141789349Y-96505494D01*
X141813249Y-96276176D01*
X141813500Y-96250000D01*
X141794007Y-96020265D01*
X141736084Y-95797098D01*
X141641388Y-95586882D01*
X141630338Y-95570468D01*
X141610686Y-95541278D01*
X141512627Y-95395626D01*
X141353482Y-95228799D01*
X141168504Y-95091171D01*
X141163753Y-95088755D01*
X141163749Y-95088753D01*
X140967740Y-94989097D01*
X140967739Y-94989097D01*
X140962982Y-94986678D01*
X140831888Y-94945972D01*
X140747895Y-94919891D01*
X140747889Y-94919890D01*
X140742792Y-94918307D01*
X140637798Y-94904391D01*
X140519515Y-94888714D01*
X140519510Y-94888714D01*
X140514230Y-94888014D01*
X140508900Y-94888214D01*
X140508899Y-94888214D01*
X140415320Y-94891727D01*
X140283831Y-94896663D01*
X140239246Y-94906018D01*
X140063411Y-94942912D01*
X140063408Y-94942913D01*
X140058184Y-94944009D01*
X139843740Y-95028697D01*
X139646631Y-95148306D01*
X139642601Y-95151803D01*
X139516406Y-95261309D01*
X139472492Y-95299415D01*
X139469109Y-95303541D01*
X139469105Y-95303545D01*
X139434545Y-95345695D01*
X139326304Y-95477705D01*
X139323667Y-95482338D01*
X139323666Y-95482339D01*
X139290116Y-95541278D01*
X139239033Y-95590584D01*
X139169402Y-95604445D01*
X139103332Y-95578461D01*
X139076094Y-95549312D01*
X139070686Y-95541278D01*
X138978599Y-95404496D01*
X138975607Y-95400052D01*
X138975605Y-95400050D01*
X138972627Y-95395626D01*
X138813482Y-95228799D01*
X138628504Y-95091171D01*
X138623753Y-95088755D01*
X138623749Y-95088753D01*
X138427740Y-94989097D01*
X138427739Y-94989097D01*
X138422982Y-94986678D01*
X138291888Y-94945972D01*
X138207895Y-94919891D01*
X138207889Y-94919890D01*
X138202792Y-94918307D01*
X138097798Y-94904391D01*
X137979515Y-94888714D01*
X137979510Y-94888714D01*
X137974230Y-94888014D01*
X137968900Y-94888214D01*
X137968899Y-94888214D01*
X137875320Y-94891727D01*
X137743831Y-94896663D01*
X137699246Y-94906018D01*
X137523411Y-94942912D01*
X137523408Y-94942913D01*
X137518184Y-94944009D01*
X137505779Y-94948908D01*
X137435074Y-94955325D01*
X137372123Y-94922496D01*
X137336914Y-94860846D01*
X137333500Y-94831715D01*
X137333500Y-90076196D01*
X139288895Y-90076196D01*
X139289744Y-90081742D01*
X139320453Y-90282426D01*
X139321529Y-90289460D01*
X139329556Y-90312904D01*
X139389116Y-90486865D01*
X139391413Y-90493575D01*
X139496338Y-90682088D01*
X139499891Y-90686428D01*
X139499893Y-90686432D01*
X139588374Y-90794534D01*
X139632987Y-90849041D01*
X139797042Y-90989158D01*
X139801887Y-90991989D01*
X139978470Y-91095176D01*
X139978473Y-91095177D01*
X139983317Y-91098008D01*
X139988587Y-91099937D01*
X139988588Y-91099937D01*
X140180659Y-91170225D01*
X140180663Y-91170226D01*
X140185923Y-91172151D01*
X140191439Y-91173114D01*
X140191444Y-91173115D01*
X140392933Y-91208280D01*
X140392934Y-91208280D01*
X140398457Y-91209244D01*
X140404063Y-91209215D01*
X140404067Y-91209215D01*
X140502301Y-91208700D01*
X140614200Y-91208114D01*
X140619718Y-91207091D01*
X140619721Y-91207091D01*
X140820815Y-91169821D01*
X140820816Y-91169821D01*
X140826334Y-91168798D01*
X140831579Y-91166816D01*
X140831583Y-91166815D01*
X141013674Y-91098008D01*
X141028153Y-91092537D01*
X141213277Y-90981742D01*
X141217497Y-90978060D01*
X141217502Y-90978057D01*
X141371626Y-90843606D01*
X141375856Y-90839916D01*
X141388003Y-90824754D01*
X141507244Y-90675918D01*
X141507247Y-90675913D01*
X141510750Y-90671541D01*
X141613695Y-90481939D01*
X141650286Y-90371299D01*
X141690667Y-90312904D01*
X141756207Y-90285610D01*
X141826099Y-90298083D01*
X141878153Y-90346362D01*
X141889121Y-90370049D01*
X141929116Y-90486865D01*
X141931413Y-90493575D01*
X142036338Y-90682088D01*
X142039891Y-90686428D01*
X142039893Y-90686432D01*
X142128374Y-90794534D01*
X142172987Y-90849041D01*
X142337042Y-90989158D01*
X142341887Y-90991989D01*
X142518470Y-91095176D01*
X142518473Y-91095177D01*
X142523317Y-91098008D01*
X142528587Y-91099937D01*
X142528588Y-91099937D01*
X142720659Y-91170225D01*
X142720663Y-91170226D01*
X142725923Y-91172151D01*
X142731439Y-91173114D01*
X142731444Y-91173115D01*
X142932933Y-91208280D01*
X142932934Y-91208280D01*
X142938457Y-91209244D01*
X142944063Y-91209215D01*
X142944067Y-91209215D01*
X143042301Y-91208700D01*
X143154200Y-91208114D01*
X143159718Y-91207091D01*
X143159721Y-91207091D01*
X143360815Y-91169821D01*
X143360816Y-91169821D01*
X143366334Y-91168798D01*
X143371579Y-91166816D01*
X143371583Y-91166815D01*
X143553674Y-91098008D01*
X143568153Y-91092537D01*
X143753277Y-90981742D01*
X143757497Y-90978060D01*
X143757502Y-90978057D01*
X143911626Y-90843606D01*
X143915856Y-90839916D01*
X143928003Y-90824754D01*
X144047244Y-90675918D01*
X144047247Y-90675913D01*
X144050750Y-90671541D01*
X144153695Y-90481939D01*
X144221438Y-90277104D01*
X144251837Y-90063510D01*
X144253500Y-90000000D01*
X144234321Y-89785108D01*
X144197158Y-89649260D01*
X144178874Y-89582424D01*
X144178873Y-89582420D01*
X144177392Y-89577008D01*
X144084510Y-89382278D01*
X144001186Y-89266319D01*
X143961890Y-89211632D01*
X143961885Y-89211627D01*
X143958614Y-89207074D01*
X143803680Y-89056933D01*
X143682358Y-88975408D01*
X143629261Y-88939728D01*
X143629255Y-88939725D01*
X143624608Y-88936602D01*
X143479224Y-88872783D01*
X143432199Y-88852140D01*
X143432197Y-88852139D01*
X143427057Y-88849883D01*
X143280376Y-88814668D01*
X143222729Y-88800828D01*
X143222728Y-88800828D01*
X143217272Y-88799518D01*
X143134801Y-88794763D01*
X143007490Y-88787422D01*
X143007487Y-88787422D01*
X143001883Y-88787099D01*
X142787699Y-88813018D01*
X142581490Y-88876456D01*
X142576510Y-88879026D01*
X142576506Y-88879028D01*
X142394757Y-88972836D01*
X142389774Y-88975408D01*
X142218611Y-89106746D01*
X142073411Y-89266319D01*
X141958764Y-89449083D01*
X141956674Y-89454283D01*
X141956670Y-89454290D01*
X141886353Y-89629210D01*
X141842387Y-89684955D01*
X141775262Y-89708080D01*
X141706290Y-89691243D01*
X141657370Y-89639791D01*
X141647912Y-89615463D01*
X141638873Y-89582422D01*
X141637392Y-89577008D01*
X141544510Y-89382278D01*
X141461186Y-89266319D01*
X141421890Y-89211632D01*
X141421885Y-89211627D01*
X141418614Y-89207074D01*
X141263680Y-89056933D01*
X141142358Y-88975408D01*
X141089261Y-88939728D01*
X141089255Y-88939725D01*
X141084608Y-88936602D01*
X140939224Y-88872783D01*
X140892199Y-88852140D01*
X140892197Y-88852139D01*
X140887057Y-88849883D01*
X140740376Y-88814668D01*
X140682729Y-88800828D01*
X140682728Y-88800828D01*
X140677272Y-88799518D01*
X140594801Y-88794763D01*
X140467490Y-88787422D01*
X140467487Y-88787422D01*
X140461883Y-88787099D01*
X140247699Y-88813018D01*
X140041490Y-88876456D01*
X140036510Y-88879026D01*
X140036506Y-88879028D01*
X139854757Y-88972836D01*
X139849774Y-88975408D01*
X139678611Y-89106746D01*
X139533411Y-89266319D01*
X139418764Y-89449083D01*
X139338293Y-89649260D01*
X139337156Y-89654751D01*
X139337155Y-89654754D01*
X139329599Y-89691243D01*
X139294542Y-89860524D01*
X139288895Y-90076196D01*
X137333500Y-90076196D01*
X137333500Y-86650000D01*
X146136500Y-86650000D01*
X146136500Y-88350000D01*
X146141727Y-88423079D01*
X146182904Y-88563316D01*
X146187775Y-88570895D01*
X146257051Y-88678691D01*
X146257053Y-88678694D01*
X146261923Y-88686271D01*
X146268733Y-88692172D01*
X146365569Y-88776082D01*
X146365572Y-88776084D01*
X146372381Y-88781984D01*
X146380579Y-88785728D01*
X146384289Y-88787422D01*
X146505330Y-88842700D01*
X146514245Y-88843982D01*
X146514246Y-88843982D01*
X146645552Y-88862861D01*
X146645559Y-88862862D01*
X146650000Y-88863500D01*
X148350000Y-88863500D01*
X148423079Y-88858273D01*
X148501165Y-88835345D01*
X148554670Y-88819635D01*
X148554672Y-88819634D01*
X148563316Y-88817096D01*
X148627135Y-88776082D01*
X148678691Y-88742949D01*
X148678694Y-88742947D01*
X148686271Y-88738077D01*
X148726048Y-88692172D01*
X148776082Y-88634431D01*
X148776084Y-88634428D01*
X148781984Y-88627619D01*
X148842700Y-88494670D01*
X148848760Y-88452519D01*
X148862861Y-88354448D01*
X148862862Y-88354441D01*
X148863500Y-88350000D01*
X148863500Y-86650000D01*
X148858273Y-86576921D01*
X148817096Y-86436684D01*
X148771393Y-86365569D01*
X148742949Y-86321309D01*
X148742947Y-86321306D01*
X148738077Y-86313729D01*
X148731267Y-86307828D01*
X148634431Y-86223918D01*
X148634428Y-86223916D01*
X148627619Y-86218016D01*
X148494670Y-86157300D01*
X148485755Y-86156018D01*
X148485754Y-86156018D01*
X148354448Y-86137139D01*
X148354441Y-86137138D01*
X148350000Y-86136500D01*
X146650000Y-86136500D01*
X146576921Y-86141727D01*
X146523884Y-86157300D01*
X146445330Y-86180365D01*
X146445328Y-86180366D01*
X146436684Y-86182904D01*
X146429105Y-86187775D01*
X146321309Y-86257051D01*
X146321306Y-86257053D01*
X146313729Y-86261923D01*
X146307828Y-86268733D01*
X146223918Y-86365569D01*
X146223916Y-86365572D01*
X146218016Y-86372381D01*
X146157300Y-86505330D01*
X146156018Y-86514245D01*
X146156018Y-86514246D01*
X146137139Y-86645552D01*
X146137138Y-86645559D01*
X146136500Y-86650000D01*
X137333500Y-86650000D01*
X137333500Y-79500000D01*
X143336500Y-79500000D01*
X143356462Y-79689927D01*
X143415476Y-79871554D01*
X143510963Y-80036942D01*
X143515381Y-80041849D01*
X143515382Y-80041850D01*
X143584136Y-80118209D01*
X143614854Y-80182216D01*
X143616500Y-80202519D01*
X143616500Y-82797481D01*
X143596498Y-82865602D01*
X143584136Y-82881791D01*
X143510963Y-82963058D01*
X143415476Y-83128446D01*
X143356462Y-83310073D01*
X143336500Y-83500000D01*
X143356462Y-83689927D01*
X143415476Y-83871554D01*
X143510963Y-84036942D01*
X143515381Y-84041849D01*
X143515382Y-84041850D01*
X143604595Y-84140931D01*
X143638749Y-84178863D01*
X143644091Y-84182744D01*
X143644093Y-84182746D01*
X143764266Y-84270056D01*
X143793250Y-84291114D01*
X143799278Y-84293798D01*
X143799280Y-84293799D01*
X143961682Y-84366105D01*
X143967713Y-84368790D01*
X144061113Y-84388643D01*
X144148056Y-84407124D01*
X144148061Y-84407124D01*
X144154513Y-84408496D01*
X144345487Y-84408496D01*
X144351939Y-84407124D01*
X144351944Y-84407124D01*
X144438887Y-84388643D01*
X144532287Y-84368790D01*
X144538318Y-84366105D01*
X144700720Y-84293799D01*
X144700722Y-84293798D01*
X144706750Y-84291114D01*
X144735734Y-84270056D01*
X144855907Y-84182746D01*
X144855909Y-84182744D01*
X144861251Y-84178863D01*
X144895405Y-84140931D01*
X144984618Y-84041850D01*
X144984619Y-84041849D01*
X144989037Y-84036942D01*
X145084524Y-83871554D01*
X145143538Y-83689927D01*
X145163500Y-83500000D01*
X145143538Y-83310073D01*
X145084524Y-83128446D01*
X144989037Y-82963058D01*
X144932259Y-82900000D01*
X146136500Y-82900000D01*
X146136500Y-84600000D01*
X146141727Y-84673079D01*
X146182904Y-84813316D01*
X146187775Y-84820895D01*
X146257051Y-84928691D01*
X146257053Y-84928694D01*
X146261923Y-84936271D01*
X146268733Y-84942172D01*
X146365569Y-85026082D01*
X146365572Y-85026084D01*
X146372381Y-85031984D01*
X146380579Y-85035728D01*
X146495341Y-85088138D01*
X146505330Y-85092700D01*
X146514245Y-85093982D01*
X146514246Y-85093982D01*
X146645552Y-85112861D01*
X146645559Y-85112862D01*
X146650000Y-85113500D01*
X148350000Y-85113500D01*
X148423079Y-85108273D01*
X148528803Y-85077230D01*
X148554670Y-85069635D01*
X148554672Y-85069634D01*
X148563316Y-85067096D01*
X148627135Y-85026082D01*
X148678691Y-84992949D01*
X148678694Y-84992947D01*
X148686271Y-84988077D01*
X148726048Y-84942172D01*
X148776082Y-84884431D01*
X148776084Y-84884428D01*
X148781984Y-84877619D01*
X148842700Y-84744670D01*
X148843982Y-84735754D01*
X148862861Y-84604448D01*
X148862862Y-84604441D01*
X148863500Y-84600000D01*
X148863500Y-82900000D01*
X148858273Y-82826921D01*
X148817096Y-82686684D01*
X148755927Y-82591504D01*
X148742949Y-82571309D01*
X148742947Y-82571306D01*
X148738077Y-82563729D01*
X148731267Y-82557828D01*
X148634431Y-82473918D01*
X148634428Y-82473916D01*
X148627619Y-82468016D01*
X148494670Y-82407300D01*
X148485755Y-82406018D01*
X148485754Y-82406018D01*
X148354448Y-82387139D01*
X148354441Y-82387138D01*
X148350000Y-82386500D01*
X146650000Y-82386500D01*
X146576921Y-82391727D01*
X146523884Y-82407300D01*
X146445330Y-82430365D01*
X146445328Y-82430366D01*
X146436684Y-82432904D01*
X146429105Y-82437775D01*
X146321309Y-82507051D01*
X146321306Y-82507053D01*
X146313729Y-82511923D01*
X146307828Y-82518733D01*
X146223918Y-82615569D01*
X146223916Y-82615572D01*
X146218016Y-82622381D01*
X146214272Y-82630579D01*
X146179737Y-82706201D01*
X146157300Y-82755330D01*
X146156018Y-82764245D01*
X146156018Y-82764246D01*
X146137139Y-82895552D01*
X146137138Y-82895559D01*
X146136500Y-82900000D01*
X144932259Y-82900000D01*
X144915864Y-82881791D01*
X144885146Y-82817784D01*
X144883500Y-82797481D01*
X144883500Y-80202519D01*
X144903502Y-80134398D01*
X144915864Y-80118209D01*
X144984618Y-80041850D01*
X144984619Y-80041849D01*
X144989037Y-80036942D01*
X145084524Y-79871554D01*
X145143538Y-79689927D01*
X145163500Y-79500000D01*
X145143538Y-79310073D01*
X145084524Y-79128446D01*
X144989037Y-78963058D01*
X144861251Y-78821137D01*
X144855909Y-78817256D01*
X144855907Y-78817254D01*
X144712092Y-78712767D01*
X144712091Y-78712766D01*
X144706750Y-78708886D01*
X144700722Y-78706202D01*
X144700720Y-78706201D01*
X144574490Y-78650000D01*
X146136500Y-78650000D01*
X146136500Y-80350000D01*
X146141727Y-80423079D01*
X146182904Y-80563316D01*
X146193119Y-80579211D01*
X146257051Y-80678691D01*
X146257053Y-80678694D01*
X146261923Y-80686271D01*
X146268733Y-80692172D01*
X146365569Y-80776082D01*
X146365572Y-80776084D01*
X146372381Y-80781984D01*
X146505330Y-80842700D01*
X146514245Y-80843982D01*
X146514246Y-80843982D01*
X146645552Y-80862861D01*
X146645559Y-80862862D01*
X146650000Y-80863500D01*
X148350000Y-80863500D01*
X148423079Y-80858273D01*
X148501165Y-80835345D01*
X148554670Y-80819635D01*
X148554672Y-80819634D01*
X148563316Y-80817096D01*
X148627135Y-80776082D01*
X148678691Y-80742949D01*
X148678694Y-80742947D01*
X148686271Y-80738077D01*
X148726048Y-80692172D01*
X148776082Y-80634431D01*
X148776084Y-80634428D01*
X148781984Y-80627619D01*
X148796197Y-80596498D01*
X148838958Y-80502864D01*
X148838958Y-80502863D01*
X148842700Y-80494670D01*
X148859210Y-80379838D01*
X148862861Y-80354448D01*
X148862862Y-80354441D01*
X148863500Y-80350000D01*
X148863500Y-78650000D01*
X148858273Y-78576921D01*
X148834846Y-78497136D01*
X148819635Y-78445330D01*
X148819634Y-78445328D01*
X148817096Y-78436684D01*
X148783740Y-78384782D01*
X148742949Y-78321309D01*
X148742947Y-78321306D01*
X148738077Y-78313729D01*
X148731267Y-78307828D01*
X148634431Y-78223918D01*
X148634428Y-78223916D01*
X148627619Y-78218016D01*
X148494670Y-78157300D01*
X148485755Y-78156018D01*
X148485754Y-78156018D01*
X148354448Y-78137139D01*
X148354441Y-78137138D01*
X148350000Y-78136500D01*
X146650000Y-78136500D01*
X146576921Y-78141727D01*
X146523884Y-78157300D01*
X146445330Y-78180365D01*
X146445328Y-78180366D01*
X146436684Y-78182904D01*
X146429105Y-78187775D01*
X146321309Y-78257051D01*
X146321306Y-78257053D01*
X146313729Y-78261923D01*
X146307828Y-78268733D01*
X146223918Y-78365569D01*
X146223916Y-78365572D01*
X146218016Y-78372381D01*
X146214272Y-78380579D01*
X146198884Y-78414275D01*
X146157300Y-78505330D01*
X146156018Y-78514245D01*
X146156018Y-78514246D01*
X146137139Y-78645552D01*
X146137138Y-78645559D01*
X146136500Y-78650000D01*
X144574490Y-78650000D01*
X144538318Y-78633895D01*
X144538317Y-78633895D01*
X144532287Y-78631210D01*
X144438887Y-78611357D01*
X144351944Y-78592876D01*
X144351939Y-78592876D01*
X144345487Y-78591504D01*
X144154513Y-78591504D01*
X144148061Y-78592876D01*
X144148056Y-78592876D01*
X144061113Y-78611357D01*
X143967713Y-78631210D01*
X143961683Y-78633895D01*
X143961682Y-78633895D01*
X143799280Y-78706201D01*
X143799278Y-78706202D01*
X143793250Y-78708886D01*
X143787909Y-78712766D01*
X143787908Y-78712767D01*
X143644093Y-78817254D01*
X143644091Y-78817256D01*
X143638749Y-78821137D01*
X143510963Y-78963058D01*
X143415476Y-79128446D01*
X143356462Y-79310073D01*
X143336500Y-79500000D01*
X137333500Y-79500000D01*
X137333500Y-76578396D01*
X137334014Y-76567482D01*
X137335667Y-76560089D01*
X137333562Y-76493115D01*
X137333500Y-76489158D01*
X137333500Y-76460422D01*
X137332961Y-76456151D01*
X137332028Y-76444313D01*
X137330888Y-76408042D01*
X137330639Y-76400117D01*
X137324987Y-76380661D01*
X137320978Y-76361302D01*
X137319434Y-76349079D01*
X137319434Y-76349078D01*
X137318440Y-76341212D01*
X137313230Y-76328054D01*
X137302168Y-76300111D01*
X137298323Y-76288882D01*
X137288199Y-76254035D01*
X137288198Y-76254034D01*
X137285987Y-76246422D01*
X137275674Y-76228983D01*
X137266978Y-76211231D01*
X137262442Y-76199775D01*
X137259522Y-76192400D01*
X137233533Y-76156629D01*
X137227016Y-76146708D01*
X137207548Y-76113790D01*
X137204514Y-76108659D01*
X137204145Y-76108241D01*
X137190062Y-76094158D01*
X137177228Y-76079133D01*
X137165446Y-76062917D01*
X137131664Y-76034970D01*
X137122885Y-76026981D01*
X136708391Y-75612487D01*
X136701031Y-75604399D01*
X136696973Y-75598005D01*
X136648121Y-75552130D01*
X136645280Y-75549376D01*
X136624966Y-75529062D01*
X136621555Y-75526417D01*
X136612533Y-75518711D01*
X136586077Y-75493867D01*
X136580301Y-75488443D01*
X136573357Y-75484626D01*
X136573355Y-75484624D01*
X136562547Y-75478682D01*
X136546023Y-75467828D01*
X136536286Y-75460275D01*
X136536285Y-75460275D01*
X136530023Y-75455417D01*
X136489447Y-75437858D01*
X136478790Y-75432637D01*
X136440048Y-75411338D01*
X136432365Y-75409366D01*
X136432364Y-75409365D01*
X136420432Y-75406301D01*
X136401728Y-75399897D01*
X136390415Y-75395001D01*
X136390408Y-75394999D01*
X136383136Y-75391852D01*
X136375312Y-75390613D01*
X136375309Y-75390612D01*
X136339465Y-75384935D01*
X136327844Y-75382528D01*
X136290782Y-75373013D01*
X136290781Y-75373013D01*
X136285025Y-75371535D01*
X136284469Y-75371500D01*
X136264548Y-75371500D01*
X136244838Y-75369949D01*
X136232886Y-75368056D01*
X136232885Y-75368056D01*
X136225056Y-75366816D01*
X136217164Y-75367562D01*
X136181418Y-75370941D01*
X136169560Y-75371500D01*
X136108194Y-75371500D01*
X136040073Y-75351498D01*
X136020849Y-75335158D01*
X136020575Y-75335462D01*
X136015672Y-75331047D01*
X136011251Y-75326137D01*
X136005909Y-75322256D01*
X136005907Y-75322254D01*
X135862092Y-75217767D01*
X135862091Y-75217766D01*
X135856750Y-75213886D01*
X135850722Y-75211202D01*
X135850720Y-75211201D01*
X135688318Y-75138895D01*
X135688317Y-75138895D01*
X135682287Y-75136210D01*
X135588887Y-75116357D01*
X135501944Y-75097876D01*
X135501939Y-75097876D01*
X135495487Y-75096504D01*
X135304513Y-75096504D01*
X135298061Y-75097876D01*
X135298056Y-75097876D01*
X135211113Y-75116357D01*
X135117713Y-75136210D01*
X135111683Y-75138895D01*
X135111682Y-75138895D01*
X134949280Y-75211201D01*
X134949278Y-75211202D01*
X134943250Y-75213886D01*
X134937909Y-75217766D01*
X134937908Y-75217767D01*
X134794093Y-75322254D01*
X134794091Y-75322256D01*
X134788749Y-75326137D01*
X134784328Y-75331047D01*
X134784327Y-75331048D01*
X134675179Y-75452270D01*
X134660963Y-75468058D01*
X134565476Y-75633446D01*
X134506462Y-75815073D01*
X134486500Y-76005000D01*
X134506462Y-76194927D01*
X134508502Y-76201205D01*
X134508502Y-76201206D01*
X134517527Y-76228983D01*
X134565476Y-76376554D01*
X134660963Y-76541942D01*
X134665381Y-76546849D01*
X134665382Y-76546850D01*
X134738555Y-76628117D01*
X134788749Y-76683863D01*
X134794091Y-76687744D01*
X134794093Y-76687746D01*
X134922859Y-76781299D01*
X134943250Y-76796114D01*
X134949278Y-76798798D01*
X134949280Y-76798799D01*
X135051749Y-76844421D01*
X135117713Y-76873790D01*
X135198731Y-76891011D01*
X135298056Y-76912124D01*
X135298061Y-76912124D01*
X135304513Y-76913496D01*
X135495487Y-76913496D01*
X135501939Y-76912124D01*
X135501944Y-76912124D01*
X135601269Y-76891011D01*
X135682287Y-76873790D01*
X135748251Y-76844421D01*
X135850720Y-76798799D01*
X135850722Y-76798798D01*
X135856750Y-76796114D01*
X135862092Y-76792232D01*
X135862095Y-76792231D01*
X135866442Y-76789073D01*
X135933311Y-76765216D01*
X136002462Y-76781299D01*
X136051940Y-76832214D01*
X136066500Y-76891011D01*
X136066500Y-94874571D01*
X136046498Y-94942692D01*
X135992842Y-94989185D01*
X135922568Y-94999289D01*
X135893147Y-94989975D01*
X135892688Y-94991106D01*
X135887742Y-94989098D01*
X135882982Y-94986678D01*
X135751888Y-94945972D01*
X135667895Y-94919891D01*
X135667889Y-94919890D01*
X135662792Y-94918307D01*
X135557798Y-94904391D01*
X135439515Y-94888714D01*
X135439510Y-94888714D01*
X135434230Y-94888014D01*
X135428900Y-94888214D01*
X135428899Y-94888214D01*
X135335320Y-94891727D01*
X135203831Y-94896663D01*
X135159246Y-94906018D01*
X134983411Y-94942912D01*
X134983408Y-94942913D01*
X134978184Y-94944009D01*
X134763740Y-95028697D01*
X134566631Y-95148306D01*
X134562601Y-95151803D01*
X134436406Y-95261309D01*
X134392492Y-95299415D01*
X134389109Y-95303541D01*
X134389105Y-95303545D01*
X134354545Y-95345695D01*
X134246304Y-95477705D01*
X134243667Y-95482338D01*
X134243666Y-95482339D01*
X134210116Y-95541278D01*
X134159033Y-95590584D01*
X134089402Y-95604445D01*
X134023332Y-95578461D01*
X133996094Y-95549312D01*
X133990686Y-95541278D01*
X133898599Y-95404496D01*
X133895607Y-95400052D01*
X133895605Y-95400050D01*
X133892627Y-95395626D01*
X133733482Y-95228799D01*
X133548504Y-95091171D01*
X133543753Y-95088755D01*
X133543749Y-95088753D01*
X133347740Y-94989097D01*
X133347739Y-94989097D01*
X133342982Y-94986678D01*
X133211888Y-94945972D01*
X133127895Y-94919891D01*
X133127889Y-94919890D01*
X133122792Y-94918307D01*
X133017798Y-94904391D01*
X132899515Y-94888714D01*
X132899510Y-94888714D01*
X132894230Y-94888014D01*
X132888900Y-94888214D01*
X132888899Y-94888214D01*
X132795320Y-94891727D01*
X132663831Y-94896663D01*
X132619246Y-94906018D01*
X132443411Y-94942912D01*
X132443408Y-94942913D01*
X132438184Y-94944009D01*
X132223740Y-95028697D01*
X132026631Y-95148306D01*
X132022601Y-95151803D01*
X131896406Y-95261309D01*
X131852492Y-95299415D01*
X131849109Y-95303541D01*
X131849105Y-95303545D01*
X131814545Y-95345695D01*
X131706304Y-95477705D01*
X131703667Y-95482338D01*
X131703666Y-95482339D01*
X131670116Y-95541278D01*
X131619033Y-95590584D01*
X131549402Y-95604445D01*
X131483332Y-95578461D01*
X131456094Y-95549312D01*
X131450686Y-95541278D01*
X131358599Y-95404496D01*
X131355607Y-95400052D01*
X131355605Y-95400050D01*
X131352627Y-95395626D01*
X131193482Y-95228799D01*
X131008504Y-95091171D01*
X131003753Y-95088755D01*
X131003749Y-95088753D01*
X130807740Y-94989097D01*
X130807739Y-94989097D01*
X130802982Y-94986678D01*
X130671888Y-94945972D01*
X130587895Y-94919891D01*
X130587889Y-94919890D01*
X130582792Y-94918307D01*
X130477798Y-94904391D01*
X130359515Y-94888714D01*
X130359510Y-94888714D01*
X130354230Y-94888014D01*
X130348900Y-94888214D01*
X130348899Y-94888214D01*
X130255320Y-94891727D01*
X130123831Y-94896663D01*
X130079246Y-94906018D01*
X129903411Y-94942912D01*
X129903408Y-94942913D01*
X129898184Y-94944009D01*
X129683740Y-95028697D01*
X129486631Y-95148306D01*
X129482601Y-95151803D01*
X129356406Y-95261309D01*
X129312492Y-95299415D01*
X129307339Y-95305700D01*
X129306364Y-95306365D01*
X129305390Y-95307366D01*
X129305186Y-95307168D01*
X129248681Y-95345695D01*
X129177710Y-95347628D01*
X129116961Y-95310885D01*
X129089008Y-95261309D01*
X129069634Y-95195329D01*
X129067096Y-95186684D01*
X129005713Y-95091171D01*
X128992949Y-95071309D01*
X128992947Y-95071306D01*
X128988077Y-95063729D01*
X128945384Y-95026735D01*
X128884431Y-94973918D01*
X128884428Y-94973916D01*
X128877619Y-94968016D01*
X128849830Y-94955325D01*
X128752864Y-94911042D01*
X128752863Y-94911042D01*
X128744670Y-94907300D01*
X128735755Y-94906018D01*
X128735754Y-94906018D01*
X128604448Y-94887139D01*
X128604441Y-94887138D01*
X128600000Y-94886500D01*
X126900000Y-94886500D01*
X126826921Y-94891727D01*
X126773884Y-94907300D01*
X126695330Y-94930365D01*
X126695328Y-94930366D01*
X126686684Y-94932904D01*
X126651797Y-94955325D01*
X126571309Y-95007051D01*
X126571306Y-95007053D01*
X126563729Y-95011923D01*
X126557828Y-95018733D01*
X126473918Y-95115569D01*
X126473916Y-95115572D01*
X126468016Y-95122381D01*
X126407300Y-95255330D01*
X126406018Y-95264245D01*
X126406018Y-95264246D01*
X126387139Y-95395552D01*
X126387138Y-95395559D01*
X126386500Y-95400000D01*
X124883500Y-95400000D01*
X124883500Y-88452519D01*
X124903502Y-88384398D01*
X124915864Y-88368209D01*
X124984618Y-88291850D01*
X124984619Y-88291849D01*
X124989037Y-88286942D01*
X125051536Y-88178691D01*
X125081220Y-88127277D01*
X125081221Y-88127276D01*
X125084524Y-88121554D01*
X125143538Y-87939927D01*
X125145373Y-87922473D01*
X125162810Y-87756565D01*
X125163500Y-87750000D01*
X125147005Y-87593057D01*
X125144228Y-87566637D01*
X125144228Y-87566636D01*
X125143538Y-87560073D01*
X125084524Y-87378446D01*
X124989037Y-87213058D01*
X124861251Y-87071137D01*
X124855909Y-87067256D01*
X124855907Y-87067254D01*
X124712092Y-86962767D01*
X124712091Y-86962766D01*
X124706750Y-86958886D01*
X124700722Y-86956202D01*
X124700720Y-86956201D01*
X124538318Y-86883895D01*
X124538317Y-86883895D01*
X124532287Y-86881210D01*
X124438887Y-86861357D01*
X124351944Y-86842876D01*
X124351939Y-86842876D01*
X124345487Y-86841504D01*
X124154513Y-86841504D01*
X124148061Y-86842876D01*
X124148056Y-86842876D01*
X124061113Y-86861357D01*
X123967713Y-86881210D01*
X123961683Y-86883895D01*
X123961682Y-86883895D01*
X123799280Y-86956201D01*
X123799278Y-86956202D01*
X123793250Y-86958886D01*
X123787909Y-86962766D01*
X123787908Y-86962767D01*
X123644093Y-87067254D01*
X123644091Y-87067256D01*
X123638749Y-87071137D01*
X123510963Y-87213058D01*
X123415476Y-87378446D01*
X123413434Y-87384731D01*
X123369833Y-87518921D01*
X123329760Y-87577527D01*
X123264363Y-87605164D01*
X123194406Y-87593057D01*
X123142100Y-87545051D01*
X123130167Y-87518921D01*
X123086566Y-87384731D01*
X123084524Y-87378446D01*
X122989037Y-87213058D01*
X122861251Y-87071137D01*
X122855909Y-87067256D01*
X122855907Y-87067254D01*
X122712092Y-86962767D01*
X122712091Y-86962766D01*
X122706750Y-86958886D01*
X122700722Y-86956202D01*
X122700720Y-86956201D01*
X122538318Y-86883895D01*
X122538317Y-86883895D01*
X122532287Y-86881210D01*
X122438887Y-86861357D01*
X122351944Y-86842876D01*
X122351939Y-86842876D01*
X122345487Y-86841504D01*
X122154513Y-86841504D01*
X122148061Y-86842876D01*
X122148056Y-86842876D01*
X122061113Y-86861357D01*
X121967713Y-86881210D01*
X121961683Y-86883895D01*
X121961682Y-86883895D01*
X121799280Y-86956201D01*
X121799278Y-86956202D01*
X121793250Y-86958886D01*
X121787909Y-86962766D01*
X121787908Y-86962767D01*
X121644093Y-87067254D01*
X121644091Y-87067256D01*
X121638749Y-87071137D01*
X121510963Y-87213058D01*
X121415476Y-87378446D01*
X121356462Y-87560073D01*
X121355772Y-87566636D01*
X121355772Y-87566637D01*
X121352995Y-87593057D01*
X121336500Y-87750000D01*
X118363500Y-87750000D01*
X118363500Y-86150000D01*
X118358273Y-86076921D01*
X118317096Y-85936684D01*
X118238077Y-85813729D01*
X118239931Y-85812537D01*
X118215545Y-85759147D01*
X118225644Y-85688872D01*
X118272133Y-85635214D01*
X118340261Y-85615207D01*
X121439909Y-85615207D01*
X121450813Y-85615721D01*
X121458204Y-85617373D01*
X121466130Y-85617124D01*
X121466131Y-85617124D01*
X121525159Y-85615269D01*
X121529116Y-85615207D01*
X121557871Y-85615207D01*
X121562138Y-85614668D01*
X121573980Y-85613735D01*
X121605628Y-85612740D01*
X121610253Y-85612595D01*
X121618176Y-85612346D01*
X121637627Y-85606695D01*
X121656988Y-85602685D01*
X121659713Y-85602341D01*
X121669223Y-85601140D01*
X121669226Y-85601139D01*
X121677081Y-85600147D01*
X121684446Y-85597231D01*
X121684450Y-85597230D01*
X121718194Y-85583870D01*
X121729423Y-85580025D01*
X121771871Y-85567693D01*
X121778699Y-85563655D01*
X121789304Y-85557384D01*
X121807055Y-85548688D01*
X121818519Y-85544149D01*
X121818522Y-85544147D01*
X121825893Y-85541229D01*
X121861661Y-85515242D01*
X121871584Y-85508723D01*
X121909634Y-85486221D01*
X121910052Y-85485852D01*
X121924135Y-85471769D01*
X121939160Y-85458935D01*
X121955376Y-85447153D01*
X121983323Y-85413371D01*
X121991312Y-85404592D01*
X122642513Y-84753391D01*
X122650601Y-84746031D01*
X122656995Y-84741973D01*
X122702870Y-84693121D01*
X122705624Y-84690280D01*
X122725938Y-84669966D01*
X122728583Y-84666555D01*
X122736289Y-84657533D01*
X122761133Y-84631077D01*
X122766557Y-84625301D01*
X122773396Y-84612861D01*
X122776318Y-84607547D01*
X122787172Y-84591023D01*
X122794725Y-84581286D01*
X122794725Y-84581285D01*
X122799583Y-84575023D01*
X122817142Y-84534447D01*
X122822363Y-84523790D01*
X122843662Y-84485048D01*
X122845635Y-84477364D01*
X122848699Y-84465432D01*
X122855103Y-84446728D01*
X122859999Y-84435415D01*
X122860001Y-84435408D01*
X122863148Y-84428136D01*
X122870065Y-84384465D01*
X122872472Y-84372844D01*
X122881987Y-84335782D01*
X122881987Y-84335781D01*
X122883465Y-84330025D01*
X122883500Y-84329469D01*
X122883500Y-84309548D01*
X122885051Y-84289838D01*
X122886944Y-84277886D01*
X122886944Y-84277885D01*
X122888184Y-84270056D01*
X122884059Y-84226417D01*
X122883500Y-84214560D01*
X122883500Y-84202519D01*
X122903502Y-84134398D01*
X122915864Y-84118209D01*
X122984618Y-84041850D01*
X122984619Y-84041849D01*
X122989037Y-84036942D01*
X123084524Y-83871554D01*
X123143538Y-83689927D01*
X123163500Y-83500000D01*
X123143538Y-83310073D01*
X123084524Y-83128446D01*
X122989037Y-82963058D01*
X122932260Y-82900000D01*
X122865673Y-82826048D01*
X122865672Y-82826047D01*
X122861251Y-82821137D01*
X122855909Y-82817256D01*
X122855907Y-82817254D01*
X122712092Y-82712767D01*
X122712091Y-82712766D01*
X122706750Y-82708886D01*
X122700722Y-82706202D01*
X122700720Y-82706201D01*
X122538318Y-82633895D01*
X122538317Y-82633895D01*
X122532287Y-82631210D01*
X122438887Y-82611357D01*
X122351944Y-82592876D01*
X122351939Y-82592876D01*
X122345487Y-82591504D01*
X122154513Y-82591504D01*
X122148061Y-82592876D01*
X122148056Y-82592876D01*
X122061113Y-82611357D01*
X121967713Y-82631210D01*
X121961683Y-82633895D01*
X121961682Y-82633895D01*
X121799280Y-82706201D01*
X121799278Y-82706202D01*
X121793250Y-82708886D01*
X121787909Y-82712766D01*
X121787908Y-82712767D01*
X121644093Y-82817254D01*
X121644091Y-82817256D01*
X121638749Y-82821137D01*
X121634328Y-82826047D01*
X121634327Y-82826048D01*
X121567741Y-82900000D01*
X121510963Y-82963058D01*
X121415476Y-83128446D01*
X121356462Y-83310073D01*
X121336500Y-83500000D01*
X121356462Y-83689927D01*
X121415476Y-83871554D01*
X121418779Y-83877276D01*
X121418780Y-83877277D01*
X121483189Y-83988836D01*
X121499927Y-84057831D01*
X121476707Y-84124923D01*
X121463165Y-84140931D01*
X121292794Y-84311302D01*
X121230482Y-84345328D01*
X121203699Y-84348207D01*
X118473226Y-84348207D01*
X118405105Y-84328205D01*
X118358612Y-84274549D01*
X118348508Y-84204276D01*
X118362861Y-84104448D01*
X118362862Y-84104441D01*
X118363500Y-84100000D01*
X118363500Y-82400000D01*
X118358273Y-82326921D01*
X118317096Y-82186684D01*
X118247005Y-82077621D01*
X118227003Y-82009500D01*
X118247005Y-81941380D01*
X118300660Y-81894887D01*
X118353003Y-81883500D01*
X121541806Y-81883500D01*
X121609927Y-81903502D01*
X121629151Y-81919842D01*
X121629425Y-81919538D01*
X121634327Y-81923952D01*
X121638749Y-81928863D01*
X121644091Y-81932744D01*
X121644093Y-81932746D01*
X121746366Y-82007051D01*
X121793250Y-82041114D01*
X121799278Y-82043798D01*
X121799280Y-82043799D01*
X121961682Y-82116105D01*
X121967713Y-82118790D01*
X122061113Y-82138643D01*
X122148056Y-82157124D01*
X122148061Y-82157124D01*
X122154513Y-82158496D01*
X122345487Y-82158496D01*
X122351939Y-82157124D01*
X122351944Y-82157124D01*
X122438887Y-82138643D01*
X122532287Y-82118790D01*
X122538318Y-82116105D01*
X122700720Y-82043799D01*
X122700722Y-82043798D01*
X122706750Y-82041114D01*
X122753634Y-82007051D01*
X122855907Y-81932746D01*
X122855909Y-81932744D01*
X122861251Y-81928863D01*
X122869647Y-81919538D01*
X122984618Y-81791850D01*
X122984619Y-81791849D01*
X122989037Y-81786942D01*
X123084524Y-81621554D01*
X123143538Y-81439927D01*
X123154731Y-81333437D01*
X123162810Y-81256565D01*
X123163500Y-81250000D01*
X123143538Y-81060073D01*
X123084524Y-80878446D01*
X123073156Y-80858755D01*
X123030993Y-80785728D01*
X122989037Y-80713058D01*
X122861251Y-80571137D01*
X122855909Y-80567256D01*
X122855907Y-80567254D01*
X122712092Y-80462767D01*
X122712091Y-80462766D01*
X122706750Y-80458886D01*
X122700722Y-80456202D01*
X122700720Y-80456201D01*
X122538318Y-80383895D01*
X122538317Y-80383895D01*
X122532287Y-80381210D01*
X122438887Y-80361357D01*
X122351944Y-80342876D01*
X122351939Y-80342876D01*
X122345487Y-80341504D01*
X122154513Y-80341504D01*
X122148061Y-80342876D01*
X122148056Y-80342876D01*
X122061113Y-80361357D01*
X121967713Y-80381210D01*
X121961683Y-80383895D01*
X121961682Y-80383895D01*
X121799280Y-80456201D01*
X121799278Y-80456202D01*
X121793250Y-80458886D01*
X121787909Y-80462766D01*
X121787908Y-80462767D01*
X121644093Y-80567254D01*
X121644091Y-80567256D01*
X121638749Y-80571137D01*
X121634328Y-80576047D01*
X121629425Y-80580462D01*
X121628299Y-80579211D01*
X121575000Y-80612049D01*
X121541806Y-80616500D01*
X118470596Y-80616500D01*
X118402475Y-80596498D01*
X118355982Y-80542842D01*
X118345878Y-80472569D01*
X118362861Y-80354448D01*
X118362862Y-80354441D01*
X118363500Y-80350000D01*
X118363500Y-78650000D01*
X118358273Y-78576921D01*
X118348899Y-78544996D01*
X118348900Y-78474000D01*
X118387285Y-78414275D01*
X118451866Y-78384782D01*
X118469796Y-78383500D01*
X121211190Y-78383500D01*
X121279311Y-78403502D01*
X121325804Y-78457158D01*
X121335154Y-78500141D01*
X121336500Y-78500000D01*
X121352266Y-78650000D01*
X121356462Y-78689927D01*
X121415476Y-78871554D01*
X121510963Y-79036942D01*
X121638749Y-79178863D01*
X121644091Y-79182744D01*
X121644093Y-79182746D01*
X121787908Y-79287233D01*
X121793250Y-79291114D01*
X121799278Y-79293798D01*
X121799280Y-79293799D01*
X121961682Y-79366105D01*
X121967713Y-79368790D01*
X122061113Y-79388643D01*
X122148056Y-79407124D01*
X122148061Y-79407124D01*
X122154513Y-79408496D01*
X122345487Y-79408496D01*
X122351939Y-79407124D01*
X122351944Y-79407124D01*
X122438887Y-79388643D01*
X122532287Y-79368790D01*
X122538318Y-79366105D01*
X122700720Y-79293799D01*
X122700722Y-79293798D01*
X122706750Y-79291114D01*
X122712092Y-79287233D01*
X122855907Y-79182746D01*
X122855909Y-79182744D01*
X122861251Y-79178863D01*
X122989037Y-79036942D01*
X123084524Y-78871554D01*
X123143538Y-78689927D01*
X123147735Y-78650000D01*
X123162810Y-78506565D01*
X123163500Y-78500000D01*
X123151390Y-78384782D01*
X123144228Y-78316637D01*
X123144228Y-78316636D01*
X123143538Y-78310073D01*
X123084524Y-78128446D01*
X122989037Y-77963058D01*
X122875308Y-77836749D01*
X122847947Y-77787591D01*
X122838198Y-77754035D01*
X122835986Y-77746421D01*
X122825677Y-77728989D01*
X122816980Y-77711236D01*
X122812442Y-77699775D01*
X122809522Y-77692400D01*
X122783531Y-77656626D01*
X122777016Y-77646707D01*
X122757529Y-77613758D01*
X122757527Y-77613755D01*
X122754513Y-77608659D01*
X122754145Y-77608241D01*
X122740062Y-77594158D01*
X122727228Y-77579133D01*
X122715446Y-77562917D01*
X122681664Y-77534970D01*
X122672885Y-77526981D01*
X122503391Y-77357487D01*
X122496031Y-77349399D01*
X122491973Y-77343005D01*
X122443121Y-77297130D01*
X122440280Y-77294376D01*
X122419966Y-77274062D01*
X122416555Y-77271417D01*
X122407533Y-77263711D01*
X122388126Y-77245486D01*
X122375301Y-77233443D01*
X122368357Y-77229626D01*
X122368355Y-77229624D01*
X122357547Y-77223682D01*
X122341023Y-77212828D01*
X122331286Y-77205275D01*
X122331285Y-77205275D01*
X122325023Y-77200417D01*
X122284447Y-77182858D01*
X122273790Y-77177637D01*
X122235048Y-77156338D01*
X122227365Y-77154366D01*
X122227364Y-77154365D01*
X122215432Y-77151301D01*
X122196728Y-77144897D01*
X122185415Y-77140001D01*
X122185408Y-77139999D01*
X122178136Y-77136852D01*
X122170312Y-77135613D01*
X122170309Y-77135612D01*
X122134465Y-77129935D01*
X122122844Y-77127528D01*
X122085782Y-77118013D01*
X122085781Y-77118013D01*
X122080025Y-77116535D01*
X122079469Y-77116500D01*
X122059548Y-77116500D01*
X122039838Y-77114949D01*
X122027886Y-77113056D01*
X122027885Y-77113056D01*
X122020056Y-77111816D01*
X122012164Y-77112562D01*
X121976418Y-77115941D01*
X121964560Y-77116500D01*
X113828396Y-77116500D01*
X113817482Y-77115986D01*
X113810089Y-77114333D01*
X113802164Y-77114582D01*
X113802163Y-77114582D01*
X113743116Y-77116438D01*
X113739158Y-77116500D01*
X113710422Y-77116500D01*
X113706151Y-77117039D01*
X113694322Y-77117971D01*
X113650117Y-77119361D01*
X113642501Y-77121574D01*
X113642499Y-77121574D01*
X113630661Y-77125013D01*
X113611302Y-77129022D01*
X113599079Y-77130566D01*
X113599078Y-77130566D01*
X113591212Y-77131560D01*
X113583836Y-77134480D01*
X113583837Y-77134480D01*
X113550111Y-77147832D01*
X113538882Y-77151677D01*
X113504035Y-77161801D01*
X113504034Y-77161802D01*
X113496422Y-77164013D01*
X113489599Y-77168048D01*
X113478983Y-77174326D01*
X113461231Y-77183022D01*
X113442400Y-77190478D01*
X113422034Y-77205275D01*
X113406629Y-77216467D01*
X113396711Y-77222982D01*
X113358659Y-77245486D01*
X113358241Y-77245855D01*
X113344158Y-77259938D01*
X113329133Y-77272772D01*
X113312917Y-77284554D01*
X113284971Y-77318335D01*
X113276981Y-77327115D01*
X112857487Y-77746609D01*
X112849399Y-77753969D01*
X112843005Y-77758027D01*
X112837580Y-77763804D01*
X112797131Y-77806878D01*
X112794376Y-77809720D01*
X112774062Y-77830034D01*
X112771417Y-77833445D01*
X112763713Y-77842465D01*
X112733443Y-77874699D01*
X112729626Y-77881643D01*
X112729624Y-77881645D01*
X112723682Y-77892453D01*
X112712828Y-77908977D01*
X112700417Y-77924977D01*
X112697270Y-77932248D01*
X112697270Y-77932249D01*
X112682859Y-77965551D01*
X112677638Y-77976207D01*
X112656338Y-78014952D01*
X112654366Y-78022635D01*
X112654365Y-78022636D01*
X112651301Y-78034568D01*
X112644898Y-78053271D01*
X112641753Y-78060539D01*
X112596343Y-78115114D01*
X112526115Y-78136500D01*
X112400000Y-78136500D01*
X112326921Y-78141727D01*
X112273884Y-78157300D01*
X112195330Y-78180365D01*
X112195328Y-78180366D01*
X112186684Y-78182904D01*
X112179105Y-78187775D01*
X112071309Y-78257051D01*
X112071306Y-78257053D01*
X112063729Y-78261923D01*
X112057828Y-78268733D01*
X111973918Y-78365569D01*
X111973916Y-78365572D01*
X111968016Y-78372381D01*
X111964272Y-78380579D01*
X111948884Y-78414275D01*
X111907300Y-78505330D01*
X111906018Y-78514245D01*
X111906018Y-78514246D01*
X111887139Y-78645552D01*
X111887138Y-78645559D01*
X111886500Y-78650000D01*
X105508000Y-78650000D01*
X105508000Y-74875000D01*
X139386500Y-74875000D01*
X139386500Y-76575000D01*
X139391727Y-76648079D01*
X139400792Y-76678952D01*
X139425296Y-76762404D01*
X139432904Y-76788316D01*
X139437775Y-76795895D01*
X139507051Y-76903691D01*
X139507053Y-76903694D01*
X139511923Y-76911271D01*
X139518733Y-76917172D01*
X139615569Y-77001082D01*
X139615572Y-77001084D01*
X139622381Y-77006984D01*
X139630579Y-77010728D01*
X139742998Y-77062068D01*
X139755330Y-77067700D01*
X139764245Y-77068982D01*
X139764246Y-77068982D01*
X139895552Y-77087861D01*
X139895559Y-77087862D01*
X139900000Y-77088500D01*
X141600000Y-77088500D01*
X141673079Y-77083273D01*
X141751165Y-77060345D01*
X141804670Y-77044635D01*
X141804672Y-77044634D01*
X141813316Y-77042096D01*
X141879721Y-76999420D01*
X141928691Y-76967949D01*
X141928694Y-76967947D01*
X141936271Y-76963077D01*
X141961086Y-76934439D01*
X142026082Y-76859431D01*
X142026084Y-76859428D01*
X142031984Y-76852619D01*
X142092700Y-76719670D01*
X142093320Y-76715360D01*
X142130432Y-76657610D01*
X142195012Y-76628117D01*
X142265286Y-76638220D01*
X142297335Y-76659270D01*
X142465629Y-76811069D01*
X142660406Y-76934439D01*
X142873184Y-77023228D01*
X142878387Y-77024425D01*
X142878392Y-77024426D01*
X143092678Y-77073701D01*
X143092683Y-77073702D01*
X143097881Y-77074897D01*
X143103209Y-77075200D01*
X143103212Y-77075200D01*
X143253877Y-77083755D01*
X143328071Y-77087968D01*
X143333378Y-77087368D01*
X143333380Y-77087368D01*
X143507354Y-77067700D01*
X143557173Y-77062068D01*
X143562288Y-77060587D01*
X143562292Y-77060586D01*
X143691298Y-77023228D01*
X143778635Y-76997937D01*
X143986125Y-76897409D01*
X143990463Y-76894309D01*
X143990468Y-76894306D01*
X144169370Y-76766459D01*
X144173711Y-76763357D01*
X144336030Y-76599617D01*
X144369319Y-76552163D01*
X144465375Y-76415236D01*
X144465376Y-76415234D01*
X144468439Y-76410868D01*
X144567153Y-76202508D01*
X144629349Y-75980494D01*
X144653249Y-75751176D01*
X144653500Y-75725000D01*
X144645246Y-75627723D01*
X144634458Y-75500576D01*
X144634457Y-75500572D01*
X144634007Y-75495265D01*
X144632237Y-75488443D01*
X144577426Y-75277269D01*
X144576084Y-75272098D01*
X144549862Y-75213886D01*
X144483578Y-75066743D01*
X144483577Y-75066741D01*
X144481388Y-75061882D01*
X144470338Y-75045468D01*
X144407886Y-74952705D01*
X144352627Y-74870626D01*
X144343067Y-74860604D01*
X144238955Y-74751467D01*
X144193482Y-74703799D01*
X144008504Y-74566171D01*
X144003753Y-74563755D01*
X144003749Y-74563753D01*
X143807740Y-74464097D01*
X143807739Y-74464097D01*
X143802982Y-74461678D01*
X143662033Y-74417912D01*
X143587895Y-74394891D01*
X143587889Y-74394890D01*
X143582792Y-74393307D01*
X143477798Y-74379391D01*
X143359515Y-74363714D01*
X143359510Y-74363714D01*
X143354230Y-74363014D01*
X143348900Y-74363214D01*
X143348899Y-74363214D01*
X143255320Y-74366727D01*
X143123831Y-74371663D01*
X143079246Y-74381018D01*
X142903411Y-74417912D01*
X142903408Y-74417913D01*
X142898184Y-74419009D01*
X142683740Y-74503697D01*
X142486631Y-74623306D01*
X142482601Y-74626803D01*
X142356406Y-74736309D01*
X142312492Y-74774415D01*
X142307339Y-74780700D01*
X142306364Y-74781365D01*
X142305390Y-74782366D01*
X142305186Y-74782168D01*
X142248681Y-74820695D01*
X142177710Y-74822628D01*
X142116961Y-74785885D01*
X142089008Y-74736309D01*
X142069634Y-74670329D01*
X142067096Y-74661684D01*
X142005713Y-74566171D01*
X141992949Y-74546309D01*
X141992947Y-74546306D01*
X141988077Y-74538729D01*
X141938056Y-74495385D01*
X141884431Y-74448918D01*
X141884428Y-74448916D01*
X141877619Y-74443016D01*
X141795175Y-74405365D01*
X141752864Y-74386042D01*
X141752863Y-74386042D01*
X141744670Y-74382300D01*
X141735755Y-74381018D01*
X141735754Y-74381018D01*
X141604448Y-74362139D01*
X141604441Y-74362138D01*
X141600000Y-74361500D01*
X139900000Y-74361500D01*
X139826921Y-74366727D01*
X139773884Y-74382300D01*
X139695330Y-74405365D01*
X139695328Y-74405366D01*
X139686684Y-74407904D01*
X139666350Y-74420972D01*
X139571309Y-74482051D01*
X139571306Y-74482053D01*
X139563729Y-74486923D01*
X139557828Y-74493733D01*
X139473918Y-74590569D01*
X139473916Y-74590572D01*
X139468016Y-74597381D01*
X139464272Y-74605579D01*
X139448131Y-74640924D01*
X139407300Y-74730330D01*
X139406018Y-74739245D01*
X139406018Y-74739246D01*
X139387139Y-74870552D01*
X139387138Y-74870559D01*
X139386500Y-74875000D01*
X105508000Y-74875000D01*
X105508000Y-72727868D01*
X144386616Y-72727868D01*
X144403166Y-73014892D01*
X144403991Y-73019097D01*
X144403992Y-73019105D01*
X144415223Y-73076348D01*
X144458516Y-73297014D01*
X144551642Y-73569014D01*
X144680822Y-73825859D01*
X144843664Y-74062796D01*
X145037155Y-74275440D01*
X145257716Y-74459857D01*
X145261357Y-74462141D01*
X145497624Y-74610352D01*
X145497628Y-74610354D01*
X145501264Y-74612635D01*
X145505174Y-74614400D01*
X145505175Y-74614401D01*
X145524898Y-74623306D01*
X145763293Y-74730945D01*
X145791317Y-74739246D01*
X146034841Y-74811382D01*
X146034846Y-74811383D01*
X146038954Y-74812600D01*
X146043188Y-74813248D01*
X146043193Y-74813249D01*
X146296037Y-74851940D01*
X146323147Y-74856088D01*
X146469498Y-74858387D01*
X146606321Y-74860537D01*
X146606327Y-74860537D01*
X146610612Y-74860604D01*
X146614864Y-74860089D01*
X146614872Y-74860089D01*
X146836529Y-74833265D01*
X146896030Y-74826064D01*
X146900179Y-74824976D01*
X146900182Y-74824975D01*
X147169970Y-74754198D01*
X147174121Y-74753109D01*
X147439736Y-74643087D01*
X147473588Y-74623306D01*
X147684255Y-74500202D01*
X147684257Y-74500200D01*
X147687963Y-74498035D01*
X147914208Y-74320637D01*
X148114283Y-74114175D01*
X148116816Y-74110727D01*
X148116820Y-74110722D01*
X148281949Y-73885925D01*
X148284487Y-73882470D01*
X148315224Y-73825859D01*
X148419621Y-73633585D01*
X148419622Y-73633583D01*
X148421671Y-73629809D01*
X148523295Y-73360869D01*
X148587479Y-73080624D01*
X148592970Y-73019105D01*
X148612816Y-72796728D01*
X148612816Y-72796726D01*
X148613036Y-72794262D01*
X148613500Y-72750000D01*
X148593946Y-72463165D01*
X148589409Y-72441254D01*
X148536513Y-72185835D01*
X148535644Y-72181638D01*
X148439674Y-71910628D01*
X148307812Y-71655150D01*
X148142498Y-71419931D01*
X148139573Y-71416783D01*
X147949711Y-71212468D01*
X147949708Y-71212466D01*
X147946790Y-71209325D01*
X147943474Y-71206611D01*
X147943471Y-71206608D01*
X147727629Y-71029942D01*
X147727622Y-71029937D01*
X147724311Y-71027227D01*
X147479176Y-70877009D01*
X147475240Y-70875281D01*
X147219851Y-70763172D01*
X147219847Y-70763171D01*
X147215923Y-70761448D01*
X146939421Y-70682685D01*
X146728794Y-70652708D01*
X146659041Y-70642781D01*
X146659039Y-70642781D01*
X146654789Y-70642176D01*
X146503976Y-70641387D01*
X146371579Y-70640693D01*
X146371573Y-70640693D01*
X146367292Y-70640671D01*
X146363048Y-70641230D01*
X146363044Y-70641230D01*
X146237864Y-70657710D01*
X146082251Y-70678197D01*
X146078111Y-70679330D01*
X146078109Y-70679330D01*
X146061547Y-70683861D01*
X145804940Y-70754061D01*
X145783580Y-70763172D01*
X145544433Y-70865176D01*
X145544426Y-70865180D01*
X145540491Y-70866858D01*
X145536810Y-70869061D01*
X145297479Y-71012297D01*
X145297475Y-71012300D01*
X145293797Y-71014501D01*
X145290454Y-71017179D01*
X145290450Y-71017182D01*
X145180922Y-71104931D01*
X145069423Y-71194259D01*
X145066479Y-71197361D01*
X145066475Y-71197365D01*
X145052143Y-71212468D01*
X144871520Y-71402804D01*
X144703752Y-71636279D01*
X144569222Y-71890362D01*
X144470419Y-72160352D01*
X144409173Y-72441254D01*
X144386616Y-72727868D01*
X105508000Y-72727868D01*
X105508000Y-70334000D01*
X105528002Y-70265879D01*
X105581658Y-70219386D01*
X105634000Y-70208000D01*
X114124000Y-70208000D01*
X114192121Y-70228002D01*
G37*
%TD.AperFunction*%
%TD*%
M02*
